<?xml version="1.0" standalone="no"?>
<!DOCTYPE svg PUBLIC "-//W3C//DTD SVG 1.1//EN" "http://www.w3.org/Graphics/SVG/1.1/DTD/svg11.dtd" >
<svg xmlns="http://www.w3.org/2000/svg" xmlns:xlink="http://www.w3.org/1999/xlink" version="1.1">
<metadata>
Created by FontForge 20160407 at Fri Oct 28 15:24:31 2016
 By Jimmy Warting
Copyright (c) ParaType, Inc., 2009. All rights reserved. ITC Officina is a registered trade mark of International Typeface Corporation.
</metadata>
<defs>
<font id="OfficinaSansBlackCITC-Reg" horiz-adv-x="563" >
  <font-face 
    font-family="OfficinaSansBlackCITC"
    font-weight="900"
    font-stretch="normal"
    units-per-em="1000"
    panose-1="2 0 10 3 0 0 0 0 0 0"
    ascent="800"
    descent="-200"
    x-height="494"
    cap-height="686"
    bbox="-70 -278 1318 978"
    underline-thickness="50"
    underline-position="-100"
    stemh=" 138 "
    stemv=" 180 "
    unicode-range="U+0020-2122"
  />
    <missing-glyph />
    <glyph glyph-name="space" unicode=" " horiz-adv-x="233" 
 />
    <glyph glyph-name="exclam" unicode="!" horiz-adv-x="378" 
d="M294 676l-25 -393c-1 -17 -3 -20 -20 -20h-123c-17 0 -19 3 -20 20l-25 400c0 12 3 14 20 14h172c17 0 21 -3 21 -15v-6zM304 81c0 -63 -52 -115 -115 -115s-115 52 -115 115s52 115 115 115s115 -52 115 -115z" />
    <glyph glyph-name="quotedbl" unicode="&#x22;" horiz-adv-x="449" 
d="M423 666l-24 -235c-2 -18 -4 -21 -21 -21h-89c-18 0 -19 3 -21 21l-24 242c0 11 5 13 21 13h138c16 0 21 -3 21 -13c0 -2 -1 -4 -1 -7zM207 666l-24 -235c-2 -18 -4 -21 -21 -21h-89c-18 0 -19 3 -21 21l-24 242c0 11 5 13 21 13h138c16 0 21 -3 21 -13c0 -2 -1 -4 -1 -7
z" />
    <glyph glyph-name="numbersign" unicode="#" horiz-adv-x="700" 
d="M733 503l-14 -114c-2 -19 -4 -21 -23 -21h-73l-13 -117h74c15 0 20 -2 20 -12c0 -2 -1 -5 -1 -8l-14 -114c-2 -19 -4 -21 -23 -21h-76l-19 -159c-2 -19 -4 -21 -23 -21h-148c-14 0 -19 2 -19 13c0 2 1 5 1 8l19 159h-85l-19 -159c-2 -19 -4 -21 -23 -21h-147
c-14 0 -19 2 -19 14l20 166h-75c-15 0 -19 1 -19 11c0 3 1 6 1 10l14 114c2 17 3 20 22 20h77l13 117h-74c-14 0 -18 1 -18 10c0 3 1 6 1 11l11 114c2 18 5 20 24 20h74l17 143c2 19 5 20 22 20h147c15 0 19 -1 19 -10c0 -3 -1 -6 -1 -10l-16 -143h85l16 141
c2 19 6 22 23 22h148c15 0 19 -1 19 -10c0 -3 -1 -6 -1 -10l-16 -143h75c14 0 18 -2 18 -10c0 -3 -1 -6 -1 -10zM434 368h-84l-15 -117h85z" />
    <glyph glyph-name="dollar" unicode="$" 
d="M525 196c0 -103 -69 -182 -178 -205v-47c0 -19 -1 -20 -20 -20h-83c-17 0 -20 1 -20 20v42c-83 10 -182 43 -182 67c0 2 1 5 2 8l41 130c2 5 5 7 9 7c3 0 6 -1 9 -2c46 -19 128 -53 175 -53c42 0 62 19 62 49c0 39 -33 49 -67 64c-35 16 -67 29 -103 48
c-40 20 -121 59 -121 190c0 90 68 164 175 185v48c0 17 3 21 20 21h83c19 0 20 -4 20 -21v-44c86 -7 165 -42 165 -69c0 -1 0 -3 -1 -4l-49 -119c-2 -5 -5 -8 -8 -8c-2 0 -5 1 -8 3c-41 21 -109 51 -155 51c-41 0 -63 -12 -63 -44s21 -45 67 -66c123 -54 230 -102 230 -231z
" />
    <glyph glyph-name="percent" unicode="%" horiz-adv-x="940" 
d="M907 174c0 -96 -58 -193 -180 -193c-117 0 -179 86 -179 192c0 107 65 191 179 191s180 -78 180 -190zM676 652l-280 -675c-5 -12 -13 -17 -24 -17h-93c-14 0 -19 4 -19 12c0 4 1 8 3 13l282 677c4 9 13 15 23 15h92c14 0 20 -3 20 -11c0 -4 -2 -8 -4 -14zM393 472
c0 -96 -58 -192 -180 -192c-117 0 -179 85 -179 191c0 107 65 191 179 191s180 -78 180 -190zM769 174c0 71 -21 81 -42 81c-19 0 -41 -14 -41 -82c0 -67 23 -79 41 -79c21 0 42 13 42 80zM255 472c0 71 -21 81 -42 81c-19 0 -42 -14 -42 -82c0 -67 24 -79 42 -79
c21 0 42 13 42 80z" />
    <glyph glyph-name="ampersand" unicode="&#x26;" horiz-adv-x="686" 
d="M657 103c6 -6 9 -10 9 -14c0 -5 -4 -10 -10 -16l-87 -89c-4 -4 -7 -6 -11 -6c-5 0 -10 3 -17 9l-53 48c-45 -32 -91 -61 -195 -61c-152 0 -252 71 -252 204c0 96 66 151 130 190c-55 62 -77 104 -77 154c0 107 98 185 220 185c119 0 205 -70 205 -176
c0 -79 -62 -133 -115 -176l73 -76c13 34 9 97 29 97c2 0 5 -1 8 -1l116 -16c9 -1 13 -7 13 -16c0 -42 -21 -126 -50 -176zM353 528c0 31 -19 44 -45 44c-29 0 -48 -18 -48 -44c0 -32 27 -56 47 -78c35 32 46 52 46 78zM383 149l-110 118c-34 -25 -51 -51 -51 -79
c0 -40 32 -71 78 -71c38 0 59 14 83 32z" />
    <glyph glyph-name="quotesingle" unicode="'" horiz-adv-x="233" 
d="M207 666l-24 -235c-2 -18 -4 -21 -21 -21h-89c-18 0 -19 3 -21 21l-24 242c0 11 5 13 21 13h138c16 0 21 -3 21 -13c0 -2 -1 -4 -1 -7z" />
    <glyph glyph-name="parenleft" unicode="(" horiz-adv-x="471" 
d="M438 -215l-96 -60c-4 -2 -7 -3 -10 -3c-12 0 -23 13 -32 22c-125 135 -222 295 -222 500c0 207 105 379 229 506c10 10 15 16 23 16c4 0 9 -2 14 -5l93 -58c6 -4 8 -8 8 -12c0 -6 -3 -12 -8 -19c-98 -142 -166 -233 -166 -428c0 -197 81 -313 153 -409
c13 -17 24 -28 24 -37c0 -5 -3 -9 -10 -13z" />
    <glyph glyph-name="parenright" unicode=")" horiz-adv-x="481" 
d="M403 244c0 -205 -98 -365 -223 -500c-9 -9 -19 -22 -31 -22c-3 0 -6 1 -10 3l-95 60c-7 5 -10 9 -10 14c0 9 9 19 22 36c72 96 153 212 153 409c0 195 -66 286 -164 428c-5 7 -8 13 -8 19c0 4 2 8 8 12l91 58c5 3 10 5 14 5c8 0 13 -6 23 -16c124 -126 230 -299 230 -506
z" />
    <glyph glyph-name="asterisk" unicode="*" horiz-adv-x="567" 
d="M509 478c2 -5 3 -9 3 -12c0 -7 -6 -10 -19 -12l-108 -20l73 -76c6 -6 9 -11 9 -15s-3 -9 -11 -14l-97 -69c-6 -4 -10 -6 -14 -6c-5 0 -9 4 -14 14l-47 103l-50 -104c-5 -10 -9 -14 -14 -14c-4 0 -8 2 -14 6l-97 69c-8 5 -12 10 -12 14s4 9 10 15l79 82l-109 16
c-13 2 -19 5 -19 12c0 3 1 7 3 12l39 113c4 11 7 16 13 16c4 0 8 -2 14 -5l98 -53l-16 113c0 3 -1 7 -1 9c0 11 5 14 20 14h119c14 0 20 -3 20 -13c0 -3 0 -6 -1 -10l-22 -116l98 55c6 3 10 5 14 5c6 0 10 -5 14 -16z" />
    <glyph glyph-name="plus" unicode="+" horiz-adv-x="540" 
d="M504 288c0 -19 -2 -21 -21 -21h-120v-122c0 -19 -2 -21 -21 -21h-144c-17 0 -20 2 -20 21v122h-121c-19 0 -20 2 -20 21v123c0 17 2 20 21 20h120v121c0 19 3 21 20 21h144c19 0 21 -3 21 -22v-120h120c19 0 21 -3 21 -20v-123z" />
    <glyph glyph-name="comma" unicode="," horiz-adv-x="319" 
d="M297 120l-153 -290c-6 -10 -9 -13 -14 -13c-3 0 -8 1 -13 3l-82 28c-11 4 -16 7 -16 14c0 3 1 6 2 11l76 256c4 13 10 16 23 16h162c15 0 20 -3 20 -10c0 -4 -2 -9 -5 -15z" />
    <glyph glyph-name="hyphenminus" unicode="-" horiz-adv-x="437" 
d="M398 196c0 -19 -2 -20 -21 -20h-318c-19 0 -20 1 -20 20v120c0 17 1 20 20 20h318c19 0 21 -3 21 -20v-120z" />
    <glyph glyph-name="period" unicode="." horiz-adv-x="325" 
d="M287 100c0 -70 -56 -126 -126 -126s-125 56 -125 126s55 125 125 125s126 -55 126 -125z" />
    <glyph glyph-name="slash" unicode="/" horiz-adv-x="546" 
d="M42 -61l305 815c5 12 12 17 26 17h121c14 0 18 -4 18 -11c0 -4 -1 -8 -3 -13l-303 -815c-4 -11 -14 -17 -27 -17h-123c-14 0 -18 3 -18 9c0 4 2 8 4 15z" />
    <glyph glyph-name="zero" unicode="0" 
d="M550 347c0 -190 -47 -364 -272 -364c-178 0 -265 136 -265 345c0 183 66 358 277 358c198 0 260 -168 260 -339zM371 318c0 184 -28 224 -85 224c-53 0 -92 -45 -92 -212c0 -162 38 -204 89 -204c56 0 88 39 88 192z" />
    <glyph glyph-name="one" unicode="1" 
d="M478 21c0 -19 -3 -21 -21 -21h-335c-19 0 -20 2 -20 21v98c0 19 1 21 20 21h85v319l-86 -49c-6 -3 -11 -5 -14 -5c-6 0 -8 5 -14 14l-48 80c-5 7 -7 10 -7 14s4 8 13 14l213 142h108c18 0 21 -4 21 -21v-508h64c18 0 21 -2 21 -21v-98z" />
    <glyph glyph-name="two" unicode="2" 
d="M514 500c0 -126 -53 -172 -148 -243c-29 -22 -98 -64 -114 -99h237c17 0 21 -3 21 -20v-117c0 -19 -1 -21 -18 -21h-425c-11 0 -14 3 -14 17c0 58 1 32 1 53c0 248 284 275 284 413c0 39 -21 57 -58 57c-78 0 -77 -102 -110 -102c-2 0 -3 0 -5 1l-107 40
c-8 3 -11 8 -11 15c0 16 2 30 33 84c40 70 117 108 214 108c130 0 220 -74 220 -186z" />
    <glyph glyph-name="three" unicode="3" 
d="M515 201c0 -130 -111 -217 -260 -217c-31 0 -153 9 -212 59c-5 4 -8 7 -8 11c0 2 0 4 1 6l32 110c2 5 5 7 8 7c5 0 10 -4 15 -6c56 -26 119 -44 152 -44c60 0 90 26 90 78c0 49 -20 74 -102 74h-33c-17 0 -21 1 -21 20v100c0 17 3 21 20 21h35c52 0 86 14 86 69
c0 35 -24 54 -59 54c-76 0 -90 -72 -109 -72c-2 0 -4 1 -6 3l-88 77c-3 3 -4 6 -4 9c0 5 3 11 6 16c41 72 120 110 207 110c131 0 226 -75 226 -192c0 -59 -31 -101 -72 -133c57 -34 96 -90 96 -160z" />
    <glyph glyph-name="four" unicode="4" 
d="M545 140c0 -17 -2 -21 -21 -21h-49v-116c0 -19 -4 -20 -21 -20h-132c-19 0 -21 3 -21 20v116h-265c-17 0 -21 4 -21 21v131l263 409c6 9 8 13 13 13c3 0 7 -1 14 -4l127 -50c11 -4 17 -8 17 -14c0 -4 -3 -8 -7 -14l-251 -343h115l22 126c3 17 4 20 21 20h105
c17 0 21 -4 21 -21v-126h49c19 0 21 -2 21 -25v-102z" />
    <glyph glyph-name="five" unicode="5" 
d="M527 240c0 -158 -116 -259 -288 -259c-24 0 -198 18 -198 56c0 2 1 4 1 6l21 113c1 7 5 9 9 9c5 0 10 -2 15 -4c54 -16 94 -30 153 -30c76 0 120 39 120 108c0 57 -27 81 -76 81c-45 0 -66 -17 -93 -45c-5 -5 -9 -8 -15 -8c-2 0 -4 0 -7 1l-99 32c-13 4 -16 8 -16 18
l32 331c2 17 3 20 22 20h348c17 0 22 0 22 -19v-119c0 -19 -3 -20 -21 -20h-216l-10 -74c20 14 48 20 76 20c132 0 220 -86 220 -217z" />
    <glyph glyph-name="six" unicode="6" 
d="M524 234c0 -148 -97 -251 -243 -251c-158 0 -240 113 -240 300c0 237 123 403 322 403c77 0 133 -31 133 -52c0 -2 0 -5 -1 -7l-30 -100c-2 -6 -7 -9 -12 -9c-3 0 -5 1 -8 2c-24 12 -53 22 -82 22c-52 0 -106 -25 -149 -111c42 31 74 39 99 39c130 0 211 -90 211 -236z
M359 238c0 74 -23 104 -69 104c-44 0 -75 -32 -75 -106c0 -79 28 -111 71 -111c49 0 73 34 73 113z" />
    <glyph glyph-name="seven" unicode="7" 
d="M504 581l-237 -585c-5 -12 -7 -16 -16 -16c-2 0 -5 0 -9 1l-145 29c-13 3 -18 6 -18 12c0 4 1 8 4 14l206 469h-230c-17 0 -20 1 -20 20v123c0 19 3 21 20 21h424c17 0 21 -4 21 -21v-67z" />
    <glyph glyph-name="eight" unicode="8" 
d="M543 191c0 -144 -133 -208 -262 -208c-155 0 -261 75 -261 205c0 71 47 128 114 166c-53 35 -88 84 -88 146c0 114 104 190 236 190c134 0 238 -74 238 -189c0 -61 -36 -108 -90 -145c59 -35 113 -87 113 -165zM342 491c0 36 -22 56 -60 56c-37 0 -61 -21 -61 -54
c0 -40 32 -58 66 -72c33 13 55 33 55 70zM361 192c0 53 -40 75 -84 92c-39 -19 -80 -45 -80 -92c0 -40 30 -68 85 -68c50 0 79 28 79 68z" />
    <glyph glyph-name="nine" unicode="9" 
d="M522 383c0 -237 -118 -402 -322 -402c-77 0 -125 20 -125 38c0 2 1 4 1 7l21 111c1 6 5 8 9 8c9 0 61 -17 94 -17c57 0 106 22 149 108c-33 -27 -74 -40 -99 -40c-127 0 -211 91 -211 237c0 148 98 253 244 253c158 0 239 -116 239 -303zM346 431c0 79 -26 111 -69 111
c-49 0 -72 -34 -72 -113c0 -74 22 -104 68 -104c44 0 73 32 73 106z" />
    <glyph glyph-name="colon" unicode=":" horiz-adv-x="338" 
d="M303 406c0 -70 -56 -125 -126 -125s-125 55 -125 125s55 126 125 126s126 -56 126 -126zM303 100c0 -70 -56 -126 -126 -126s-125 56 -125 126s55 125 125 125s126 -55 126 -125z" />
    <glyph glyph-name="semicolon" unicode=";" horiz-adv-x="340" 
d="M322 406c0 -70 -55 -125 -125 -125s-126 55 -126 125s56 126 126 126s125 -56 125 -126zM305 120l-153 -290c-6 -10 -9 -13 -14 -13c-3 0 -8 1 -13 3l-82 28c-11 4 -16 7 -16 14c0 3 1 6 2 11l76 256c4 13 10 16 23 16h162c15 0 20 -3 20 -10c0 -4 -2 -9 -5 -15z" />
    <glyph glyph-name="less" unicode="&#x3c;" horiz-adv-x="540" 
d="M525 41c0 -13 -2 -18 -8 -18c-3 0 -7 2 -12 4l-471 239c-14 7 -18 9 -18 20v114c0 10 4 13 16 19l472 240c5 2 9 4 12 4c6 0 8 -5 8 -18v-153c0 -11 -1 -15 -15 -21l-274 -126l274 -129c14 -7 16 -11 16 -22v-153z" />
    <glyph glyph-name="equal" unicode="=" horiz-adv-x="540" 
d="M514 390c0 -19 -2 -21 -21 -21h-446c-19 0 -21 2 -21 21v119c0 17 2 21 21 21h446c19 0 21 -4 21 -21v-119zM514 157c0 -19 -2 -20 -21 -20h-446c-19 0 -21 1 -21 20v120c0 17 2 20 21 20h446c19 0 21 -3 21 -20v-120z" />
    <glyph glyph-name="greater" unicode="&#x3e;" horiz-adv-x="540" 
d="M525 286c0 -11 -3 -13 -17 -20l-471 -239c-5 -2 -9 -4 -12 -4c-6 0 -9 5 -9 18v153c0 11 3 15 17 22l272 129l-272 126c-14 6 -16 10 -16 21v153c0 13 3 18 9 18c3 0 7 -2 12 -4l472 -240c12 -6 15 -9 15 -19v-114z" />
    <glyph glyph-name="question" unicode="?" horiz-adv-x="548" 
d="M505 506c0 -84 -53 -149 -165 -187l-1 -34c-1 -18 -4 -22 -21 -22h-132c-19 0 -21 3 -21 22v115c0 15 4 17 23 23c91 27 133 31 133 85c0 24 -14 42 -66 42c-61 0 -118 -43 -145 -43c-4 0 -8 3 -11 10l-40 111c-1 4 -2 7 -2 10c0 8 7 12 18 20c51 36 171 50 200 50
c135 0 230 -80 230 -202zM371 82c0 -63 -52 -115 -115 -115s-116 52 -116 115s53 115 116 115s115 -52 115 -115z" />
    <glyph glyph-name="at" unicode="@" horiz-adv-x="1044" 
d="M948 357c0 -195 -131 -318 -285 -318c-56 0 -87 20 -97 57c-36 -35 -66 -57 -117 -57c-75 0 -109 55 -109 132c0 140 82 269 179 269c47 0 80 -11 101 -33c5 10 9 25 23 25h79c9 0 11 -4 11 -10c0 -3 0 -6 -1 -10l-47 -227c-2 -8 -3 -15 -3 -21c0 -17 8 -25 30 -25
c58 0 116 110 116 211c0 119 -84 213 -247 213c-214 0 -358 -168 -358 -377c0 -193 136 -253 284 -253c103 0 193 18 278 57c5 2 12 6 18 6c4 0 8 -2 10 -7l26 -73c2 -5 3 -9 3 -12c0 -7 -5 -10 -14 -16c-64 -41 -200 -71 -318 -71c-237 0 -414 117 -414 372
c0 282 219 482 490 482c216 0 362 -117 362 -314zM592 313c-13 13 -33 25 -50 25c-46 0 -68 -119 -68 -158c0 -26 3 -39 28 -39c27 0 64 36 75 94z" />
    <glyph glyph-name="A" unicode="A" horiz-adv-x="646" 
d="M631 24c1 -5 2 -9 2 -12c0 -9 -5 -12 -20 -12h-169c-17 0 -18 1 -22 17l-38 143h-131l-41 -143c-5 -16 -5 -17 -21 -17h-156c-16 0 -21 4 -21 10c0 4 2 9 4 14l209 645c4 15 5 17 22 17h149c16 0 17 -1 23 -17zM356 295l-20 117c-5 28 -14 84 -18 114
c-4 -32 -11 -85 -17 -114l-26 -117h81z" />
    <glyph glyph-name="B" unicode="B" horiz-adv-x="589" 
d="M552 204c0 -88 -57 -173 -141 -193c-39 -9 -58 -11 -130 -11h-206c-19 0 -21 2 -21 21v645c0 17 2 20 21 20h197c109 0 153 -8 196 -46c38 -34 60 -87 60 -140c0 -61 -22 -106 -82 -138c74 -33 106 -88 106 -158zM350 484c0 44 -14 64 -71 64h-37v-132h41
c49 0 67 23 67 68zM370 213c0 48 -13 71 -95 71h-33v-139h41c69 0 87 26 87 68z" />
    <glyph glyph-name="C" unicode="C" horiz-adv-x="540" 
d="M514 67c2 -4 2 -7 2 -10c0 -40 -131 -74 -193 -74c-194 0 -286 141 -286 367c0 119 21 206 83 271c51 54 120 82 197 82c63 0 139 -24 185 -63c8 -6 12 -11 12 -18c0 -3 -1 -5 -2 -9l-48 -115c-3 -6 -7 -8 -11 -8c-3 0 -5 1 -8 2c-32 15 -76 53 -123 53
c-46 0 -89 -39 -89 -175c0 -179 48 -229 103 -229c63 0 111 49 120 49c3 0 6 -3 9 -9z" />
    <glyph glyph-name="D" unicode="D" horiz-adv-x="618" 
d="M581 349c0 -211 -70 -349 -292 -349h-214c-19 0 -21 2 -21 21v645c0 17 4 20 21 20h178c232 0 328 -91 328 -337zM385 339v27c0 87 -5 165 -109 165h-28v-376h29c102 0 108 60 108 184z" />
    <glyph glyph-name="E" unicode="E" horiz-adv-x="516" 
d="M482 662l-17 -116c-2 -14 -9 -16 -22 -16h-195v-100h161c17 0 21 -2 21 -21v-115c0 -17 -4 -20 -21 -20h-161v-117h209c19 0 20 -3 20 -20v-116c0 -19 -1 -21 -20 -21h-382c-19 0 -21 2 -21 21v645c0 17 2 20 21 20h390c15 0 19 -3 19 -11c0 -3 -1 -8 -2 -13z" />
    <glyph glyph-name="F" unicode="F" horiz-adv-x="484" 
d="M482 662l-17 -116c-2 -16 -7 -16 -22 -16h-195v-110h161c17 0 21 -2 21 -21v-115c0 -17 -4 -21 -21 -21h-161v-242c0 -19 -4 -21 -21 -21h-152c-19 0 -21 2 -21 21v645c0 19 2 20 21 20h390c15 0 19 -3 19 -11c0 -3 -1 -8 -2 -13z" />
    <glyph glyph-name="G" unicode="G" horiz-adv-x="614" 
d="M569 77c0 -47 -144 -94 -233 -94c-203 0 -298 127 -298 352v4c1 228 98 364 300 364c73 0 162 -21 212 -64c4 -3 7 -9 7 -14c0 -2 -1 -4 -2 -7l-56 -117c-2 -4 -5 -5 -8 -5c-5 0 -10 3 -14 5c-32 16 -75 41 -134 41c-60 0 -111 -36 -111 -194c0 -78 13 -213 113 -213
c13 0 37 3 52 8v94l-80 1c-17 0 -19 1 -19 18v111c0 19 2 21 21 21h231c17 0 19 -4 19 -19v-292z" />
    <glyph glyph-name="H" unicode="H" horiz-adv-x="626" 
d="M572 21c0 -19 -2 -21 -21 -21h-153c-19 0 -20 2 -20 21v251h-130v-251c0 -19 -4 -21 -21 -21h-153c-19 0 -20 2 -20 21v645c0 17 1 20 20 20h153c17 0 21 -3 21 -20v-236h130v236c0 17 1 20 20 20h153c19 0 21 -3 21 -20v-645z" />
    <glyph glyph-name="I" unicode="I" horiz-adv-x="359" 
d="M332 21c0 -19 -1 -21 -20 -21h-265c-19 0 -20 2 -20 21v103c0 19 1 21 20 21h33v395h-33c-19 0 -20 2 -20 21v105c0 17 1 20 20 20h265c19 0 20 -3 20 -20v-105c0 -19 -1 -21 -20 -21h-38v-395h38c19 0 20 -4 20 -21v-103z" />
    <glyph glyph-name="J" unicode="J" horiz-adv-x="489" 
d="M435 211c0 -146 -75 -228 -219 -228c-140 0 -209 63 -209 233c0 19 3 25 13 25h143c8 0 11 -4 11 -14c0 -80 2 -95 34 -95c30 0 33 24 33 64v343h-132c-19 0 -21 2 -21 21v106c0 17 2 20 21 20h305c17 0 21 -3 21 -20v-455z" />
    <glyph glyph-name="K" unicode="K" horiz-adv-x="627" 
d="M622 52c5 -6 8 -11 8 -16s-4 -10 -14 -12l-166 -38c-5 -1 -9 -2 -12 -2c-5 0 -7 2 -13 10l-177 252v-225c0 -19 -4 -21 -21 -21h-152c-19 0 -21 2 -21 21v645c0 17 2 20 21 20h152c17 0 21 -3 21 -20v-231l160 252c4 6 8 8 14 8c4 0 8 -1 14 -2l153 -37
c10 -2 14 -6 14 -12c0 -4 -3 -10 -7 -16l-200 -276z" />
    <glyph glyph-name="L" unicode="L" horiz-adv-x="510" 
d="M488 149l-18 -132c-2 -16 -6 -17 -21 -17h-374c-19 0 -21 2 -21 21v645c0 17 2 20 21 20h152c17 0 21 -3 21 -20v-494h221c14 0 20 -2 20 -14c0 -3 0 -5 -1 -9z" />
    <glyph glyph-name="M" unicode="M" horiz-adv-x="731" 
d="M687 22v-6c0 -12 -3 -16 -20 -16h-145c-19 0 -21 4 -21 21l-3 227c0 28 5 138 9 182c-13 -51 -37 -133 -43 -156l-32 -117c-4 -16 -7 -16 -23 -16h-89c-16 0 -19 0 -23 17l-29 116c-6 25 -27 110 -38 156c3 -45 4 -154 4 -182l-2 -227c0 -18 -3 -21 -20 -21h-147
c-16 0 -20 4 -20 16l41 650c1 17 4 20 21 20h154c15 0 18 -1 23 -16l61 -196c8 -27 17 -66 24 -95c7 29 19 68 27 94l64 197c5 15 6 16 22 16h148c16 0 20 -3 21 -20z" />
    <glyph glyph-name="N" unicode="N" horiz-adv-x="635" 
d="M581 21c0 -19 -2 -21 -21 -21h-115c-17 0 -19 3 -29 20l-157 278c-14 24 -25 51 -46 104c8 -55 15 -86 15 -116v-265c0 -19 -4 -21 -21 -21h-132c-19 0 -21 2 -21 21v645c0 17 2 20 21 20h128c17 0 19 -1 28 -17l145 -249c14 -25 26 -60 45 -106c-7 49 -13 90 -13 117
v235c0 17 2 20 21 20h131c19 0 21 -1 21 -20v-645z" />
    <glyph glyph-name="O" unicode="O" horiz-adv-x="628" 
d="M591 352c0 -232 -86 -369 -280 -369c-192 0 -274 135 -274 369c0 153 48 351 278 351c190 0 276 -131 276 -351zM394 343c0 169 -36 216 -80 216c-42 0 -81 -55 -81 -220c0 -164 38 -212 81 -212s80 49 80 216z" />
    <glyph glyph-name="P" unicode="P" horiz-adv-x="555" 
d="M528 488c0 -139 -99 -232 -249 -232h-31v-235c0 -19 -4 -21 -21 -21h-152c-19 0 -21 2 -21 21v645c0 19 2 20 21 20h196c97 0 152 -11 194 -47c39 -34 63 -92 63 -151zM353 478c0 52 -27 68 -77 68h-28v-144h23c62 0 82 21 82 76z" />
    <glyph glyph-name="Q" unicode="Q" horiz-adv-x="627" 
d="M613 9l-93 -93c-6 -6 -10 -7 -13 -7c-25 0 -71 34 -116 82c-25 -6 -52 -10 -81 -10c-191 0 -273 137 -273 371c0 153 48 351 277 351c190 0 276 -131 276 -351c0 -115 -21 -207 -66 -271c25 -17 92 -49 92 -66c0 -2 -1 -4 -3 -6zM394 344c0 168 -36 215 -80 215
c-41 0 -81 -54 -81 -213v-6c1 -164 38 -212 81 -212s80 49 80 216z" />
    <glyph glyph-name="R" unicode="R" horiz-adv-x="595" 
d="M577 40c4 -6 5 -11 5 -15c0 -6 -4 -10 -16 -12l-155 -28c-5 -1 -8 -2 -11 -2c-6 0 -9 3 -14 13l-131 270h-9v-245c0 -19 -4 -21 -21 -21h-150c-19 0 -21 2 -21 21v645c0 19 2 20 21 20h197c97 0 152 -11 194 -47c39 -34 63 -92 63 -151c0 -86 -42 -154 -101 -192z
M352 478c0 52 -26 68 -76 68h-30v-143h24c62 0 82 20 82 75z" />
    <glyph glyph-name="S" unicode="S" horiz-adv-x="545" 
d="M513 207c0 -133 -100 -220 -248 -220c-70 0 -236 35 -236 74c0 2 0 4 1 6l36 128c2 6 5 9 10 9c3 0 6 -1 9 -3c53 -32 133 -56 180 -56c42 0 62 20 62 50c0 43 -21 53 -121 99c-101 47 -171 87 -171 200c0 128 99 205 247 205c91 0 218 -40 218 -74c0 -2 0 -3 -1 -5
l-43 -117c-2 -5 -5 -7 -8 -7c-2 0 -5 1 -8 2c-39 18 -107 46 -153 46c-47 0 -63 -17 -63 -41c0 -27 20 -39 75 -64c116 -53 214 -97 214 -232z" />
    <glyph glyph-name="T" unicode="T" horiz-adv-x="513" 
d="M521 662l-23 -125c-3 -14 -6 -17 -21 -17h-121v-499c0 -19 -1 -21 -20 -21h-153c-19 0 -21 2 -21 21v499h-129c-19 0 -21 2 -21 21v125c0 17 2 20 21 20h470c15 0 19 -3 19 -12c0 -3 0 -7 -1 -12z" />
    <glyph glyph-name="U" unicode="U" horiz-adv-x="652" 
d="M598 240c0 -179 -114 -257 -284 -257c-196 0 -260 92 -260 249v434c0 17 2 20 21 20h153c19 0 20 -3 20 -20v-417c0 -91 22 -112 77 -112c58 0 85 29 85 111v418c0 17 3 20 20 20h147c19 0 21 -3 21 -20v-426z" />
    <glyph glyph-name="V" unicode="V" horiz-adv-x="596" 
d="M587 655l-191 -652c-4 -14 -6 -16 -22 -16h-159c-16 0 -17 1 -21 16l-184 649c-2 5 -3 10 -3 13c0 7 5 11 18 12l170 18c10 0 14 -4 17 -16l67 -333c7 -36 11 -77 20 -139c7 51 13 104 20 138l73 331c3 13 6 16 17 16l161 -12c15 -1 19 -6 19 -13c0 -3 -1 -7 -2 -12z" />
    <glyph glyph-name="W" unicode="W" horiz-adv-x="836" 
d="M827 649l-148 -645c-4 -15 -7 -17 -22 -17h-141c-17 0 -20 1 -23 17l-58 289c-5 26 -11 98 -15 148c-5 -49 -10 -122 -17 -150l-66 -287c-4 -16 -6 -17 -22 -17h-142c-17 0 -17 1 -21 17l-142 647c-1 5 -2 10 -2 13c0 7 4 11 18 12l147 15c6 1 10 1 13 1c6 0 8 -3 11 -17
l49 -287c5 -29 11 -76 16 -144c7 69 7 112 14 143l62 279c3 15 5 17 22 17h122c17 0 18 -2 22 -19l63 -276c7 -29 8 -81 14 -149c8 67 13 123 17 148l46 287c2 14 6 17 13 17c3 0 7 0 12 -1l143 -16c13 -1 17 -5 17 -12c0 -3 -1 -8 -2 -13z" />
    <glyph glyph-name="X" unicode="X" horiz-adv-x="623" 
d="M614 28c4 -7 7 -12 7 -16c0 -6 -5 -10 -18 -11l-165 -15c-5 0 -8 -1 -11 -1c-5 0 -9 2 -14 12l-83 170c-6 13 -10 28 -17 49c-5 -22 -11 -37 -18 -50l-84 -168c-4 -10 -7 -13 -12 -13c-3 0 -8 1 -14 2l-162 18c-12 1 -17 5 -17 11c0 4 2 10 6 17l191 330l-169 278
c-4 6 -6 11 -6 15c0 6 5 11 18 13l160 27c6 1 11 2 14 2c5 0 7 -3 12 -14l60 -132c7 -15 15 -32 20 -51c6 20 11 36 17 51l55 134c5 11 8 14 14 14c3 0 7 -1 12 -2l159 -29c13 -2 17 -6 17 -11c0 -4 -2 -9 -6 -16l-158 -281z" />
    <glyph glyph-name="Y" unicode="Y" horiz-adv-x="594" 
d="M590 646l-196 -365v-260c0 -19 -2 -21 -20 -21h-153c-19 0 -21 2 -21 21v261l-196 368c-3 6 -5 11 -5 15c0 7 6 10 18 11l169 18c4 1 8 1 11 1c6 0 9 -3 13 -14l71 -178c7 -18 9 -32 16 -61c8 30 10 45 17 61l75 179c4 9 8 13 17 13c3 0 6 -1 9 -1l162 -21
c13 -2 18 -6 18 -12c0 -4 -2 -9 -5 -15z" />
    <glyph glyph-name="Z" unicode="Z" horiz-adv-x="568" 
d="M544 147l-10 -128c-1 -16 -4 -19 -21 -19h-458c-19 0 -21 2 -21 21v95l262 409h-228c-16 0 -19 2 -19 10c0 3 0 8 1 13l14 121c2 17 6 17 22 17h407c19 0 21 -3 21 -20v-106l-251 -391h261c18 0 21 -3 21 -12c0 -3 -1 -6 -1 -10z" />
    <glyph glyph-name="bracketleft" unicode="[" horiz-adv-x="489" 
d="M410 -184c0 -19 -4 -21 -21 -21h-258c-19 0 -20 2 -20 21v878c0 19 1 21 20 21h258c17 0 21 -2 21 -21v-113c0 -17 -4 -20 -21 -20h-90v-611h90c17 0 21 -4 21 -21v-113z" />
    <glyph glyph-name="backslash" unicode="\" horiz-adv-x="546" 
d="M507 -61c2 -7 4 -11 4 -15c0 -6 -4 -9 -18 -9h-123c-13 0 -23 6 -27 17l-303 815c-2 5 -3 9 -3 13c0 7 4 11 18 11h121c14 0 21 -5 26 -17z" />
    <glyph glyph-name="bracketright" unicode="]" horiz-adv-x="489" 
d="M378 -184c0 -19 -1 -21 -20 -21h-259c-17 0 -20 2 -20 21v113c0 17 3 21 20 21h91v611h-91c-17 0 -20 3 -20 20v113c0 19 3 21 20 21h259c19 0 20 -2 20 -21v-878z" />
    <glyph glyph-name="asciicircum" unicode="^" horiz-adv-x="558" 
d="M542 371c2 -5 4 -9 4 -12c0 -6 -5 -8 -18 -8h-150c-11 0 -14 1 -21 15l-76 164l-77 -163c-7 -14 -9 -16 -20 -16h-151c-12 0 -17 3 -17 8c0 3 1 7 4 12l153 301c7 14 9 17 20 17h178c10 0 11 -2 17 -14z" />
    <glyph glyph-name="underscore" unicode="_" horiz-adv-x="602" 
d="M589 -166c0 -19 -2 -20 -21 -20h-534c-19 0 -21 1 -21 20v115c0 17 2 20 21 20h534c19 0 21 -3 21 -20v-115z" />
    <glyph glyph-name="grave" unicode="`" horiz-adv-x="427" 
d="M368 628l-33 -65c-5 -10 -9 -14 -15 -14c-3 0 -7 1 -12 3l-234 89c-11 4 -16 8 -16 14c0 4 2 8 5 14l55 109c5 10 8 15 13 15c4 0 8 -3 15 -7l214 -130c9 -6 13 -9 13 -14c0 -3 -2 -8 -5 -14z" />
    <glyph glyph-name="a" unicode="a" horiz-adv-x="523" 
d="M489 36c1 -4 2 -7 2 -10s-1 -5 -7 -7l-107 -31c-6 -2 -12 -3 -19 -3c-14 0 -19 13 -34 48c-38 -31 -74 -47 -119 -47c-109 0 -172 61 -172 159c0 141 136 175 266 175v29c0 18 -6 30 -58 30c-31 0 -71 -11 -120 -31c-3 -2 -6 -2 -8 -2c-4 0 -7 2 -9 8l-36 99
c-1 4 -2 6 -2 8c0 5 4 7 13 12c50 28 119 38 185 38c128 0 202 -53 202 -172v-182c0 -69 13 -96 23 -121zM299 130v85c-84 0 -111 -25 -111 -63c0 -34 22 -54 48 -54c20 0 43 12 63 32z" />
    <glyph glyph-name="b" unicode="b" horiz-adv-x="558" 
d="M525 268c0 -91 -14 -154 -60 -208c-42 -49 -100 -77 -166 -77c-35 0 -61 13 -92 36c-14 -31 -20 -32 -32 -32c-5 0 -3 1 -13 2l-115 14c-7 1 -11 4 -11 10c0 3 1 7 3 12c10 29 18 56 18 112v548c0 11 0 16 15 18l146 20c4 0 7 1 10 1c8 0 9 -4 9 -17v-225
c29 18 64 30 96 30c131 0 192 -95 192 -244zM354 260c0 97 -28 138 -57 138c-16 0 -35 -6 -60 -23v-258c12 -6 30 -11 41 -11c40 0 76 52 76 154z" />
    <glyph glyph-name="c" unicode="c" horiz-adv-x="470" 
d="M452 432l-38 -88c-3 -6 -5 -9 -9 -9c-3 0 -7 2 -12 5c-35 22 -67 37 -102 37c-39 0 -80 -32 -80 -133c0 -97 40 -127 81 -127c33 0 60 15 86 30c7 4 12 6 16 6c5 0 9 -4 13 -12l38 -74c2 -4 4 -8 4 -12c0 -44 -133 -72 -176 -72c-159 0 -240 101 -240 256
c0 163 91 272 256 272c57 0 112 -18 157 -51c7 -5 10 -9 10 -14c0 -4 -2 -8 -4 -14z" />
    <glyph glyph-name="d" unicode="d" horiz-adv-x="550" 
d="M516 47c2 -6 3 -10 3 -13c0 -5 -3 -8 -10 -10l-109 -34c-10 -3 -15 -3 -22 -3c-11 0 -20 14 -28 43c-42 -31 -88 -47 -130 -47c-129 0 -187 110 -187 255c0 102 11 160 59 213c39 43 91 61 152 61c25 0 49 -7 74 -17v188c0 8 1 13 9 14l151 25c3 1 6 1 9 1
c7 0 11 -3 11 -16v-576c0 -42 10 -58 18 -84zM318 129v257c-17 6 -37 10 -54 10c-39 0 -64 -29 -64 -145c0 -114 25 -145 57 -145c20 0 45 10 61 23z" />
    <glyph glyph-name="e" unicode="e" horiz-adv-x="534" 
d="M504 224c0 -13 -6 -14 -16 -14h-283c6 -70 34 -97 84 -97c60 0 91 16 129 37c5 3 8 4 11 4c5 0 9 -4 13 -11l45 -84c2 -3 3 -6 3 -8c0 -4 -3 -7 -10 -11c-68 -46 -141 -57 -196 -57c-166 0 -251 98 -251 260c0 154 92 268 246 268c158 0 225 -103 225 -287zM335 317
c-4 65 -23 84 -62 84c-42 0 -58 -21 -68 -84h130z" />
    <glyph glyph-name="f" unicode="f" horiz-adv-x="423" 
d="M430 669l-26 -94c-2 -8 -7 -12 -14 -12c-3 0 -7 1 -11 3c-20 8 -41 20 -76 20c-26 0 -36 -16 -36 -51v-41h113c13 0 17 -1 17 -10c0 -3 0 -7 -1 -11l-18 -102c-2 -9 -4 -10 -16 -10h-95v-353c0 -8 -1 -8 -12 -8h-162c-4 0 -6 1 -6 13v348h-53c-14 0 -16 1 -16 21v96
c0 12 2 16 18 16h51v39c0 123 67 191 191 191c30 0 154 -18 154 -45c0 -2 -1 -6 -2 -10z" />
    <glyph glyph-name="g" unicode="g" horiz-adv-x="565" 
d="M521 460c-12 -35 -21 -85 -21 -122v-147c0 -69 4 -136 4 -205c0 -125 -81 -195 -219 -195c-63 0 -166 19 -223 58c-6 4 -9 6 -9 10c0 2 1 4 2 8l32 102c2 5 5 8 10 8s11 -3 18 -6c50 -23 99 -41 159 -41c36 0 49 8 49 51c0 4 -4 44 -4 49c-26 -14 -57 -24 -90 -24
c-128 0 -191 93 -191 234c0 155 71 271 211 271c42 0 77 -15 107 -39c11 20 20 42 36 42c4 0 7 0 11 -1l115 -24c6 -1 9 -4 9 -8c0 -5 -3 -11 -6 -21zM318 141v226c-13 8 -26 15 -52 15c-30 0 -60 -40 -60 -134s27 -129 52 -129c28 0 44 8 60 22z" />
    <glyph glyph-name="h" unicode="h" horiz-adv-x="560" 
d="M510 16v-4c0 -12 -1 -12 -19 -12h-151c-9 0 -10 1 -10 11v326c0 32 -12 49 -35 49c-24 0 -42 -9 -65 -27v-350c0 -9 -1 -9 -19 -9h-146c-14 0 -15 1 -15 16v671c0 11 1 15 13 17l143 19c4 1 8 1 11 1c11 0 13 -5 13 -21v-235c31 27 79 43 119 43c121 0 161 -63 161 -160
v-335z" />
    <glyph glyph-name="i" unicode="i" horiz-adv-x="320" 
d="M277 659c-1 -57 -45 -108 -108 -108c-62 0 -107 51 -107 108s46 106 108 106c61 0 107 -50 107 -106zM266 13c0 -12 0 -13 -10 -13h-155c-12 0 -15 0 -15 13v339h-54c-12 0 -14 2 -14 13v114c0 13 2 15 14 15h220c13 0 14 -2 14 -15v-466z" />
    <glyph glyph-name="j" unicode="j" horiz-adv-x="327" 
d="M284 659c-1 -57 -45 -108 -108 -108c-62 0 -107 51 -107 108s46 106 108 106c61 0 107 -50 107 -106zM273 14c0 -111 -7 -151 -47 -194c-35 -37 -92 -56 -153 -56c-65 0 -143 25 -143 42c0 3 1 6 2 10l34 109c1 5 5 6 9 6c2 0 5 0 7 -1c33 -13 50 -22 77 -22
c31 0 34 26 34 106v338h-54c-12 0 -14 1 -14 13v114c0 14 2 15 14 15h220c14 0 14 -2 14 -15v-465z" />
    <glyph glyph-name="k" unicode="k" horiz-adv-x="549" 
d="M540 61c4 -5 7 -9 7 -13s-4 -8 -11 -11l-137 -49c-5 -2 -9 -4 -13 -4s-8 2 -12 8l-144 185v-164c0 -13 -2 -13 -13 -13h-153c-12 0 -14 0 -14 13v670c0 15 3 20 20 22l134 18c6 1 11 1 15 1c11 0 11 -4 11 -20v-350l151 160c5 5 8 7 12 7c3 0 7 -2 13 -6l100 -65
c6 -4 9 -8 9 -12s-3 -9 -8 -14l-139 -148z" />
    <glyph glyph-name="l" unicode="l" horiz-adv-x="331" 
d="M333 36c1 -3 1 -5 1 -7c0 -25 -99 -46 -132 -46c-45 0 -88 14 -115 42c-29 32 -38 67 -38 126l-1 529c0 16 1 20 13 22l150 20c5 1 9 1 12 1c8 0 9 -4 9 -18v-549c0 -13 6 -22 14 -22c23 0 46 11 53 11c4 0 7 -1 8 -6z" />
    <glyph glyph-name="m" unicode="m" horiz-adv-x="811" 
d="M761 20c0 -19 -1 -20 -18 -20h-150c-12 0 -12 1 -12 20v328c0 28 -8 44 -26 44c-23 0 -35 -10 -58 -29v-343c0 -19 -1 -20 -16 -20h-141c-15 0 -16 1 -16 15v333c0 30 -6 41 -26 41c-23 0 -36 -7 -60 -26v-348c0 -14 -1 -15 -18 -15h-144c-17 0 -18 1 -18 20v324
c0 52 -9 96 -18 123c-2 6 -3 11 -3 14c0 4 2 7 9 8l130 21c3 1 6 1 9 1c12 0 25 -13 37 -54c37 31 75 54 130 54c52 0 92 -26 120 -60c41 37 88 60 144 60c125 0 145 -86 145 -175v-316z" />
    <glyph glyph-name="n" unicode="n" horiz-adv-x="564" 
d="M514 15c0 -13 -1 -15 -11 -15h-154c-14 0 -15 2 -15 15v324c0 30 -11 48 -34 48c-21 0 -40 -7 -66 -26v-351c0 -8 -1 -10 -15 -10h-150c-14 0 -15 2 -15 13v330c0 68 -18 110 -18 132c0 5 2 7 8 8l127 27c3 1 6 1 9 1c12 0 25 -13 37 -54c43 38 87 54 137 54
c112 0 160 -61 160 -168v-328z" />
    <glyph glyph-name="o" unicode="o" horiz-adv-x="556" 
d="M523 246c0 -154 -89 -263 -244 -263c-160 0 -246 105 -246 265c0 156 89 263 247 263s243 -107 243 -265zM345 247c0 111 -25 142 -67 142s-67 -30 -67 -143c0 -111 25 -141 67 -141s67 31 67 142z" />
    <glyph glyph-name="p" unicode="p" horiz-adv-x="559" 
d="M526 248c0 -173 -64 -267 -214 -267c-30 0 -55 10 -77 20v-176c0 -13 -2 -15 -11 -16l-161 -19c-8 0 -8 4 -8 17v542c0 56 -20 100 -20 117c0 4 3 6 8 7l116 35c7 2 14 3 21 3c11 0 19 -21 27 -43c38 32 72 43 116 43c139 0 203 -106 203 -263zM352 245
c0 106 -25 140 -57 140c-17 0 -37 -6 -60 -24v-256c16 -7 35 -10 52 -10c43 0 65 27 65 150z" />
    <glyph glyph-name="q" unicode="q" horiz-adv-x="559" 
d="M525 475c-11 -30 -26 -76 -26 -137v-515c0 -10 -1 -13 -9 -14l-163 -20c-6 0 -8 3 -8 15v202c-26 -17 -58 -23 -86 -23c-136 0 -200 94 -200 247c0 162 70 281 211 281c40 0 69 -11 106 -39c9 16 21 39 43 39c3 0 10 -1 15 -2l110 -20c5 -1 8 -3 8 -8c0 -2 0 -4 -1 -6z
M319 118v242c-17 12 -36 17 -53 17c-30 0 -58 -36 -58 -145c0 -103 28 -138 54 -138c20 0 39 7 57 24z" />
    <glyph glyph-name="r" unicode="r" horiz-adv-x="420" 
d="M412 457l-42 -107c-2 -5 -6 -10 -11 -10c-14 0 -25 20 -60 20c-21 0 -30 -3 -55 -29v-320c0 -11 -1 -11 -14 -11h-151c-14 0 -15 0 -15 16v308c0 80 -28 150 -28 150c0 5 3 8 11 9l107 23c6 1 11 4 18 4c17 0 30 -21 43 -60c33 36 63 61 111 61c26 0 88 -15 88 -46
c0 -3 -1 -6 -2 -8z" />
    <glyph glyph-name="s" unicode="s" horiz-adv-x="470" 
d="M440 144c0 -110 -84 -161 -196 -161c-105 0 -216 36 -216 61c0 4 1 8 3 13l29 103c2 6 6 9 11 9c16 0 115 -52 158 -52c26 0 41 6 41 28c0 24 -31 30 -76 48c-77 31 -148 52 -148 160c0 102 89 158 203 158c91 0 128 -20 167 -41c6 -3 8 -7 8 -11c0 -3 -1 -7 -3 -11
l-36 -95c-3 -6 -5 -9 -9 -9c-2 0 -5 1 -8 2c-30 12 -76 34 -110 34c-22 0 -44 -4 -44 -25c0 -24 25 -29 63 -44c90 -37 163 -59 163 -167z" />
    <glyph glyph-name="t" unicode="t" horiz-adv-x="431" 
d="M428 42c1 -5 2 -9 2 -12c0 -24 -116 -47 -162 -47c-127 0 -167 73 -167 172v207h-70c-12 0 -12 1 -12 19v99c0 14 1 14 19 14h63v130c0 12 2 15 15 16l156 11c9 0 9 -2 9 -12v-145h118c14 0 17 -2 17 -7c0 -2 0 -5 -1 -8l-17 -103c-2 -12 -7 -14 -18 -14h-99v-203
c0 -22 12 -29 26 -29c17 0 44 7 78 22c3 1 6 2 9 2c5 0 8 -2 10 -10z" />
    <glyph glyph-name="u" unicode="u" 
d="M529 32c2 -5 4 -10 4 -13c0 -4 -2 -6 -6 -7l-130 -25h-13c-16 0 -21 18 -32 45c-34 -32 -73 -49 -124 -49c-56 0 -106 15 -137 48c-37 39 -41 69 -41 154v291c0 15 1 18 14 19l146 15c6 1 10 1 13 1c6 0 7 -2 7 -11v-340c0 -37 8 -54 38 -54c26 0 43 9 62 27v345
c0 15 0 17 13 18l147 14c5 0 8 1 11 1c8 0 9 -3 9 -13v-363c0 -50 7 -78 19 -103z" />
    <glyph glyph-name="v" unicode="v" horiz-adv-x="548" 
d="M540 471l-180 -477c-5 -12 -6 -14 -19 -14h-131c-12 0 -13 2 -18 14l-178 476c-2 5 -3 9 -3 12c0 5 4 8 16 9l178 9c8 0 11 -2 13 -13l49 -214c5 -21 10 -77 13 -108c4 31 12 87 17 108l54 214c3 12 6 14 13 14l163 -11c11 -1 15 -3 15 -9c0 -3 -1 -6 -2 -10z" />
    <glyph glyph-name="w" unicode="w" horiz-adv-x="728" 
d="M720 468l-150 -462c-4 -13 -6 -13 -19 -13h-128c-14 0 -16 1 -18 14l-33 211c-3 21 -6 70 -9 94c-2 -24 -6 -73 -11 -94l-45 -211c-3 -14 -4 -14 -17 -14h-128c-13 0 -14 1 -18 13l-132 462c-1 5 -2 8 -2 11c0 6 4 9 15 10l156 13c8 0 10 -2 12 -13l33 -198
c4 -26 8 -71 11 -98c2 27 6 73 11 98l38 188c3 13 4 15 17 15h130c13 0 15 -3 17 -16l35 -187c4 -20 6 -53 10 -98c5 44 8 78 12 97l40 199c2 11 5 13 13 13l146 -13c12 -1 16 -5 16 -11c0 -3 -1 -6 -2 -10z" />
    <glyph glyph-name="x" unicode="x" horiz-adv-x="562" 
d="M549 26c3 -5 5 -9 5 -13c0 -6 -4 -10 -13 -11l-161 -17c-4 0 -7 -1 -10 -1c-6 0 -9 2 -12 9l-57 103c-10 18 -14 32 -19 43c-5 -11 -9 -27 -18 -43l-60 -103c-4 -6 -6 -8 -11 -8c-3 0 -5 0 -10 1l-158 29c-9 2 -14 6 -14 11c0 4 2 8 6 13l155 210l-140 198
c-4 6 -6 10 -6 14c0 5 4 8 14 10l158 28c4 1 8 1 10 1c6 0 8 -3 12 -9l45 -87c5 -11 12 -30 16 -39c5 11 11 27 19 39l53 87c4 7 6 9 11 9c3 0 7 -1 12 -2l156 -32c10 -2 14 -6 14 -11c0 -4 -2 -8 -6 -13l-147 -193z" />
    <glyph glyph-name="y" unicode="y" horiz-adv-x="545" 
d="M537 467l-125 -427c-35 -121 -56 -261 -227 -261c-30 0 -168 28 -168 65c0 3 1 7 3 11l48 95c2 5 6 7 10 7c3 0 55 -34 91 -34c28 0 46 5 55 35l12 42h-34c-13 0 -14 0 -19 13l-169 452c-2 5 -3 9 -3 12c0 5 4 8 16 9l166 15c8 0 11 -2 13 -13l61 -247
c9 -37 13 -89 17 -122c5 36 11 92 18 122l55 247c2 11 4 13 11 13l155 -15c13 -1 17 -4 17 -9c0 -3 -2 -6 -3 -10z" />
    <glyph glyph-name="z" unicode="z" horiz-adv-x="501" 
d="M478 127l-21 -115c-2 -12 -8 -12 -18 -12h-389c-15 0 -17 2 -17 17v92l174 204c20 23 43 37 57 45c-16 -4 -35 -6 -66 -6h-127c-16 0 -18 1 -18 17v107c0 15 3 18 18 18h376c14 0 17 -3 17 -18v-94l-177 -205c-13 -15 -34 -28 -51 -37c20 5 43 7 59 7h170
c10 0 14 -1 14 -10c0 -3 0 -6 -1 -10z" />
    <glyph glyph-name="braceleft" unicode="{" horiz-adv-x="540" 
d="M453 -176c0 -26 -33 -24 -100 -24c-129 0 -187 52 -187 169v150c0 75 -56 43 -56 77v112c0 32 56 8 56 67v153c0 117 59 166 187 166c23 0 66 -2 80 -3c19 -2 20 -3 20 -20v-113c0 -19 -1 -21 -20 -21h-28c-42 0 -54 -4 -54 -44v-126c0 -56 -18 -88 -62 -119
c37 -24 62 -66 62 -120v-126c0 -40 10 -44 53 -44h29c19 0 20 -2 20 -21v-113z" />
    <glyph glyph-name="bar" unicode="|" horiz-adv-x="540" 
d="M363 -237c0 -19 -2 -20 -21 -20h-144c-19 0 -20 1 -20 20v988c0 17 1 20 20 20h144c19 0 21 -3 21 -20v-988z" />
    <glyph glyph-name="braceright" unicode="}" horiz-adv-x="540" 
d="M430 196c0 -34 -56 -2 -56 -77v-150c0 -117 -59 -169 -188 -169c-69 0 -99 -1 -99 24v113c0 19 1 21 20 21h29c43 0 52 4 52 44v126c0 54 27 96 64 120c-44 31 -64 63 -64 119v126c0 40 -11 44 -53 44h-28c-19 0 -20 2 -20 21v113c0 17 1 18 20 20c14 1 56 3 79 3
c128 0 188 -49 188 -166v-153c0 -58 56 -35 56 -67v-112z" />
    <glyph glyph-name="asciitilde" unicode="~" horiz-adv-x="719" 
d="M620 405c-32 -56 -61 -127 -169 -127c-65 0 -147 54 -193 54c-43 0 -58 -58 -71 -58c-4 0 -8 2 -15 6l-59 33c-9 5 -13 8 -13 14c0 3 1 8 4 14c25 55 54 134 163 134c74 0 146 -54 198 -54c47 0 64 49 76 49c3 0 7 -2 13 -5l60 -34c8 -5 12 -8 12 -12c0 -3 -2 -7 -6 -14z
" />
    <glyph glyph-name="afii10051" unicode="&#x402;" horiz-adv-x="737" 
d="M27 686h500c10 0 15 -6 15 -14l-24 -136c-3 -14 -5 -16 -17 -16h-160v-113c58 23 99 27 141 27c38 0 111 -2 161 -54c45 -47 50 -113 50 -168c0 -54 -4 -132 -53 -181c-46 -46 -112 -48 -147 -48c-34 0 -110 6 -110 28c0 3 1 5 1 8l15 109c1 6 5 10 8 10c1 0 1 -1 2 -1
l7 -3c10 -4 26 -7 34 -7c47 0 47 43 47 78c0 20 0 49 -18 67c-17 17 -43 18 -56 18c-25 0 -50 -5 -82 -19v-251c0 -16 -4 -20 -20 -20h-158c-14 0 -16 9 -16 18v502h-120c-13 0 -15 9 -15 17v135c0 12 7 14 15 14z" />
    <glyph glyph-name="afii10052" unicode="&#x403;" horiz-adv-x="491" 
d="M482 662l-17 -116c-2 -16 -7 -16 -22 -16h-195v-509c0 -19 -4 -21 -21 -21h-152c-19 0 -21 2 -21 21v645c0 19 2 20 21 20h390c15 0 19 -3 19 -11c0 -3 -1 -8 -2 -13zM412 854c3 -6 5 -10 5 -14c0 -6 -5 -10 -16 -14l-234 -89c-5 -2 -9 -3 -12 -3c-6 0 -10 4 -15 14
l-33 65c-3 6 -5 10 -5 13c0 5 4 9 14 15l213 130c7 4 11 7 15 7c5 0 8 -5 13 -15z" />
    <glyph glyph-name="quotesinglbase" unicode="&#x201a;" horiz-adv-x="309" 
d="M271 99l-109 -223c-5 -10 -8 -14 -14 -14c-3 0 -7 2 -13 3l-96 21c-13 3 -16 6 -16 13c0 3 1 8 2 13l51 196c3 12 9 16 21 16h159c14 0 20 -3 20 -10c0 -4 -2 -9 -5 -15z" />
    <glyph glyph-name="afii10100" unicode="&#x453;" horiz-adv-x="431" 
d="M50 9v474c0 7 2 11 11 11h339c9 0 11 -5 11 -11l-16 -109c-2 -16 -8 -22 -25 -22h-140v-339c0 -6 -2 -13 -11 -13h-160c-7 0 -9 2 -9 9zM377 669c3 -6 5 -10 5 -14c0 -6 -5 -10 -16 -14l-234 -89c-5 -2 -9 -3 -12 -3c-6 0 -10 4 -15 14l-33 65c-3 6 -5 10 -5 13
c0 5 4 9 14 15l213 130c7 4 11 7 15 7c5 0 8 -5 13 -15z" />
    <glyph glyph-name="quotedblbase" unicode="&#x201e;" horiz-adv-x="531" 
d="M271 99l-109 -223c-5 -10 -8 -14 -14 -14c-3 0 -7 2 -13 3l-96 21c-13 3 -16 6 -16 13c0 3 1 8 2 13l51 196c3 12 9 16 21 16h159c14 0 20 -3 20 -10c0 -4 -2 -9 -5 -15zM508 99l-109 -223c-5 -10 -8 -14 -14 -14c-3 0 -7 2 -13 3l-97 21c-12 3 -16 6 -16 12
c0 4 2 8 3 14l50 196c3 12 10 16 22 16h158c15 0 21 -3 21 -10c0 -4 -2 -9 -5 -15z" />
    <glyph glyph-name="ellipsis" unicode="&#x2026;" horiz-adv-x="939" 
d="M287 100c0 -70 -56 -126 -126 -126s-125 56 -125 126s55 125 125 125s126 -55 126 -125zM595 100c0 -70 -55 -126 -125 -126s-126 56 -126 126s56 125 126 125s125 -55 125 -125zM904 100c0 -70 -56 -126 -126 -126s-125 56 -125 126s55 125 125 125s126 -55 126 -125z
" />
    <glyph glyph-name="dagger" unicode="&#x2020;" 
d="M506 363c0 -19 -4 -20 -21 -20h-117v-534c0 -17 -4 -21 -21 -21h-131c-17 0 -21 2 -21 21v534h-116c-19 0 -22 1 -22 20v106c0 19 3 21 22 21h116v176c0 17 4 20 21 20h131c17 0 21 -3 21 -20v-176h117c17 0 21 -2 21 -21v-106z" />
    <glyph glyph-name="daggerdbl" unicode="&#x2021;" 
d="M506 11c0 -19 -4 -20 -21 -20l-117 -1v-181c0 -17 -4 -21 -21 -21h-131c-17 0 -21 2 -21 21v181l-116 1c-19 0 -22 1 -22 20v106c0 19 3 21 22 21h116v205h-116c-19 0 -22 1 -22 20v105c0 19 3 21 22 21h116v177c0 17 4 20 21 20h131c17 0 21 -3 21 -20v-177h117
c17 0 21 -2 21 -21v-105c0 -19 -4 -20 -21 -20h-117v-205h117c17 0 21 -2 21 -21v-106z" />
    <glyph glyph-name="Euro" unicode="&#x20ac;" 
d="M488 181l49 -114c1 -4 2 -7 2 -10c0 -9 -6 -15 -10 -18l-8 -6c-40 -30 -107 -50 -184 -50c-46 0 -125 7 -186 69c-42 43 -72 113 -74 182h-62c-11 0 -15 6 -15 12c0 2 0 3 1 5l19 52c4 10 5 16 19 16h32v40h-57c-10 0 -14 5 -14 11c0 2 0 4 1 6l19 52c4 10 5 16 19 16h39
c12 134 103 259 273 259c66 0 138 -25 184 -63l6 -5c3 -3 6 -7 6 -13c0 -3 -1 -6 -2 -9l-48 -115c-3 -7 -6 -9 -10 -9c-3 0 -6 1 -9 3c-12 6 -66 52 -123 52c-50 0 -77 -49 -81 -100h176c5 0 20 0 20 -12c0 -2 -1 -4 -2 -7l-19 -52c-2 -7 -3 -14 -14 -14h-166v-40h137
c7 0 19 -1 19 -11c0 -2 0 -3 -1 -5l-20 -55c-3 -9 -7 -14 -20 -14h-111c0 -69 46 -92 82 -92c27 0 59 7 105 37l9 6c3 2 7 4 10 4s6 -2 9 -8z" />
    <glyph glyph-name="perthousand" unicode="&#x2030;" horiz-adv-x="1363" 
d="M1318 174c0 -96 -58 -193 -180 -193c-117 0 -179 86 -179 192c0 107 65 191 179 191s180 -78 180 -190zM917 174c0 -96 -58 -193 -180 -193c-117 0 -179 86 -179 192c0 107 65 191 179 191s180 -78 180 -190zM686 652l-280 -675c-5 -12 -13 -17 -24 -17h-93
c-14 0 -19 4 -19 12c0 4 1 8 3 13l282 677c4 9 13 15 23 15h92c14 0 20 -3 20 -11c0 -4 -2 -8 -4 -14zM403 472c0 -96 -58 -192 -180 -192c-117 0 -179 85 -179 191c0 107 65 191 179 191s180 -78 180 -190zM1180 174c0 71 -21 81 -42 81c-19 0 -41 -14 -41 -82
c0 -67 23 -79 41 -79c21 0 42 13 42 80zM779 174c0 71 -21 81 -42 81c-19 0 -41 -14 -41 -82c0 -67 23 -79 41 -79c21 0 42 13 42 80zM265 472c0 71 -21 81 -42 81c-19 0 -42 -14 -42 -82c0 -67 24 -79 42 -79c21 0 42 13 42 80z" />
    <glyph glyph-name="afii10058" unicode="&#x409;" horiz-adv-x="913" 
d="M390 20v508h-87v-57c0 -62 -1 -139 -7 -205c-5 -62 -17 -154 -76 -214c-51 -51 -139 -69 -173 -69c-13 0 -17 4 -19 9l-38 120c0 1 -1 2 -1 3c0 6 4 12 10 14l18 4c24 5 49 10 69 31c51 51 44 256 44 383v119c0 11 7 20 21 20h406c14 0 21 -9 21 -20v-242h75
c46 0 121 -5 173 -53c49 -45 57 -109 57 -150c0 -214 -162 -221 -254 -221h-219c-16 0 -20 7 -20 20zM578 292v-147h31c52 0 92 16 92 74c0 61 -39 73 -89 73h-34z" />
    <glyph glyph-name="guilsinglleft" unicode="&#x2039;" horiz-adv-x="405" 
d="M359 73c4 -6 7 -11 7 -16s-4 -10 -13 -13l-119 -43c-7 -2 -11 -4 -15 -4c-5 0 -8 3 -13 10l-160 230c-4 7 -7 10 -7 14c0 3 2 6 6 12l161 224c5 7 8 10 13 10c4 0 8 -2 15 -5l115 -48c9 -4 12 -8 12 -13c0 -4 -2 -9 -6 -16l-105 -171z" />
    <glyph glyph-name="afii10059" unicode="&#x40a;" horiz-adv-x="901" 
d="M378 20v252h-130v-256c0 -6 -1 -16 -12 -16h-166c-9 0 -16 1 -16 13v658c0 12 3 15 15 15h165c13 0 14 -12 14 -18v-238h130v238c0 8 3 18 18 18h157c4 0 13 -1 13 -14v-248h75c46 0 121 -5 173 -53c49 -45 57 -109 57 -150c0 -214 -162 -221 -254 -221h-219
c-16 0 -20 7 -20 20zM566 292v-147h31c52 0 92 16 92 74c0 61 -39 73 -89 73h-34z" />
    <glyph glyph-name="afii10061" unicode="&#x40c;" horiz-adv-x="616" 
d="M248 281v-269c0 -9 -6 -12 -11 -12h-167c-15 0 -16 7 -16 17v654c0 12 5 15 16 15h166c8 0 12 -4 12 -12v-248h32c44 0 64 26 72 75l11 59c19 103 110 143 181 143c16 0 23 -4 26 -13l31 -106c1 -2 1 -4 1 -6c0 -9 -8 -12 -11 -13l-26 -7c-24 -6 -39 -23 -46 -61l-11 -50
c-7 -31 -28 -72 -79 -87v-3c54 -17 83 -58 92 -106l11 -57c10 -50 30 -53 50 -59l20 -5c6 -2 15 -5 15 -14c0 -2 0 -3 -1 -5l-36 -113c-3 -8 -5 -15 -23 -15c-67 0 -172 12 -191 136l-16 103c-6 38 -29 59 -68 59h-34zM477 854c3 -6 5 -10 5 -14c0 -6 -5 -10 -16 -14
l-234 -89c-5 -2 -9 -3 -12 -3c-6 0 -10 4 -15 14l-33 65c-3 6 -5 10 -5 13c0 5 4 9 14 15l213 130c7 4 11 7 15 7c5 0 8 -5 13 -15z" />
    <glyph glyph-name="afii10060" unicode="&#x40b;" horiz-adv-x="709" 
d="M27 686h500c10 0 15 -6 15 -14l-24 -136c-3 -14 -5 -16 -17 -16h-160v-113c47 20 100 27 136 27c159 0 188 -108 188 -171v-243c0 -11 -2 -20 -19 -20h-156c-12 0 -19 7 -19 19v204c0 38 -20 67 -62 67c-24 0 -42 -6 -68 -19v-251c0 -16 -4 -20 -20 -20h-158
c-14 0 -16 9 -16 18v502h-120c-13 0 -15 9 -15 17v135c0 12 7 14 15 14z" />
    <glyph glyph-name="afii10145" unicode="&#x40f;" horiz-adv-x="626" 
d="M378 158v512c0 11 3 16 16 16h161c10 0 17 0 17 -13v-652c0 -10 -1 -21 -18 -21h-153v-168c0 -13 -6 -14 -16 -14h-143c-12 0 -17 3 -17 16v166h-158c-7 0 -13 4 -13 13v656c0 12 2 17 17 17h161c9 0 16 -1 16 -13v-515h130z" />
    <glyph glyph-name="afii10099" unicode="&#x452;" horiz-adv-x="592" 
d="M248 549v-80c45 36 90 43 124 43c65 0 100 -23 116 -39c28 -26 55 -81 55 -218c0 -31 -1 -160 -34 -265c-32 -104 -99 -186 -145 -221c-5 -4 -9 -6 -13 -6c-37 0 -103 65 -103 70c0 15 45 37 82 150c22 65 24 127 24 195v60c0 93 0 149 -45 149c-23 0 -48 -17 -61 -27
v-351c0 -9 -4 -9 -11 -9h-156c-8 0 -12 0 -12 10v539h-75c-11 0 -14 3 -14 14v60c0 7 1 14 12 14h77v54c0 10 7 12 13 13l142 19c5 1 9 1 12 1c10 0 12 -4 12 -19v-68h131c11 0 12 -7 12 -14v-60c0 -11 -3 -14 -14 -14h-129z" />
    <glyph glyph-name="quoteleft" unicode="&#x2018;" horiz-adv-x="325" 
d="M276 672l-50 -197c-3 -12 -10 -16 -22 -16h-158c-15 0 -21 3 -21 10c0 4 2 9 5 15l109 224c5 10 8 13 13 13c3 0 8 -1 14 -3l97 -21c12 -3 16 -5 16 -11c0 -3 -2 -8 -3 -14z" />
    <glyph glyph-name="quoteright" unicode="&#x2019;" horiz-adv-x="309" 
d="M271 686c-28 -56 -97 -197 -109 -223c-4 -10 -8 -12 -13 -12c-4 0 -8 1 -14 2l-96 20c-13 3 -16 6 -16 13c0 3 1 8 2 13l51 196c3 12 9 17 21 17h159c15 0 20 -4 20 -11c0 -4 -2 -9 -5 -15z" />
    <glyph glyph-name="quotedblleft" unicode="&#x201c;" horiz-adv-x="529" 
d="M507 672l-51 -197c-3 -12 -9 -16 -21 -16h-159c-14 0 -20 3 -20 10c0 4 2 9 5 15l109 224c5 10 8 13 13 13c3 0 8 -1 14 -3l96 -21c13 -3 16 -6 16 -12c0 -3 -1 -8 -2 -13zM270 672l-50 -197c-3 -12 -10 -16 -22 -16h-158c-15 0 -21 3 -21 10c0 4 2 9 5 15l109 224
c5 10 8 13 13 13c3 0 8 -1 14 -3l97 -21c12 -3 16 -5 16 -11c0 -3 -2 -8 -3 -14z" />
    <glyph glyph-name="quotedblright" unicode="&#x201d;" horiz-adv-x="531" 
d="M505 686l-109 -223c-5 -10 -8 -12 -13 -12c-3 0 -8 1 -14 2l-97 20c-12 3 -16 6 -16 12c0 4 2 8 3 14l50 196c3 12 10 17 22 17h158c15 0 21 -4 21 -11c0 -4 -2 -9 -5 -15zM268 686c-28 -56 -97 -197 -109 -223c-4 -10 -8 -12 -13 -12c-4 0 -8 1 -14 2l-96 20
c-13 3 -16 6 -16 13c0 3 1 8 2 13l51 196c3 12 9 17 21 17h159c15 0 20 -4 20 -11c0 -4 -2 -9 -5 -15z" />
    <glyph glyph-name="bullet" unicode="&#x2022;" horiz-adv-x="676" 
d="M504 350c0 -80 -66 -145 -146 -145s-145 65 -145 145s65 146 145 146s146 -66 146 -146z" />
    <glyph glyph-name="endash" unicode="&#x2013;" horiz-adv-x="586" 
d="M547 200c0 -19 -1 -21 -20 -21h-467c-19 0 -21 2 -21 21v111c0 17 2 21 21 21h467c19 0 20 -4 20 -21v-111z" />
    <glyph glyph-name="emdash" unicode="&#x2014;" horiz-adv-x="906" 
d="M867 200c0 -19 -1 -21 -20 -21h-787c-19 0 -21 2 -21 21v112c0 17 2 20 21 20h787c19 0 20 -3 20 -20v-112z" />
    <glyph glyph-name="trademark" unicode="&#x2122;" horiz-adv-x="744" 
d="M715 287v-3c0 -7 -3 -9 -13 -9h-86c-11 0 -14 2 -14 12l-2 136c0 17 5 83 7 110c-8 -31 -23 -82 -27 -95l-19 -69c-3 -9 -3 -10 -13 -10h-55c-10 0 -11 0 -13 10l-17 69c-4 15 -16 68 -23 95c2 -27 3 -93 3 -110l-2 -136c0 -11 -2 -12 -12 -12h-88c-9 0 -12 1 -12 8
l24 391c1 10 3 12 13 12h92c9 0 11 -1 14 -10l37 -117c5 -16 10 -40 14 -57c4 17 12 41 17 57l38 117c3 9 3 10 13 10h90c10 0 11 -2 12 -12zM320 672l-15 -75c-2 -9 -3 -11 -12 -11h-72v-299c0 -11 -2 -12 -13 -12h-92c-11 0 -12 1 -12 12v299h-78c-11 0 -13 2 -13 13v75
c0 10 2 12 13 12h282c10 0 13 -1 13 -7c0 -2 -1 -4 -1 -7z" />
    <glyph glyph-name="afii10106" unicode="&#x459;" horiz-adv-x="821" 
d="M529 482v-159h75c35 0 108 -2 154 -46c37 -35 43 -82 43 -115c0 -30 -5 -79 -40 -114c-44 -45 -116 -48 -151 -48h-243c-11 0 -14 1 -14 14v350h-89l-1 -42c-2 -65 12 -206 -72 -286c-44 -42 -100 -53 -145 -53c-19 0 -21 9 -24 20l-27 94c0 7 4 12 10 13l14 3
c82 19 80 95 83 164c1 43 3 122 3 154v49c0 11 1 14 14 14h397c10 0 13 -2 13 -12zM529 216v-109h46c18 0 66 -3 66 55c0 53 -53 54 -67 54h-45z" />
    <glyph glyph-name="guilsinglright" unicode="&#x203a;" horiz-adv-x="400" 
d="M361 263c4 -6 6 -9 6 -12c0 -4 -3 -7 -7 -14l-161 -230c-5 -7 -8 -10 -13 -10c-4 0 -8 2 -15 4l-118 43c-9 3 -13 8 -13 13s3 10 7 16l108 171l-104 171c-4 7 -6 12 -6 16c0 5 3 9 12 13l114 48c7 3 11 5 15 5c5 0 8 -3 13 -10z" />
    <glyph glyph-name="afii10107" unicode="&#x45a;" horiz-adv-x="798" 
d="M506 504v-178h75c35 0 108 -5 154 -49c37 -35 43 -82 43 -115c0 -30 -5 -79 -40 -114c-44 -45 -116 -48 -151 -48h-243c-11 0 -14 1 -14 14v170h-100v-176c0 -7 -2 -8 -7 -8h-161c-10 0 -12 3 -12 13v470c0 8 2 10 10 11l164 17c3 0 6 -1 6 -7v-178h100v156
c0 6 1 11 8 12l162 17c3 0 6 -1 6 -7zM506 219v-112h46c18 0 66 -3 66 55c0 53 -53 57 -67 57h-45z" />
    <glyph glyph-name="afii10109" unicode="&#x45c;" horiz-adv-x="547" 
d="M230 192v-178c0 -14 0 -14 -10 -14h-155c-10 0 -15 0 -15 13v467c0 11 4 12 14 13l146 15c6 1 10 2 13 2c5 0 7 -3 7 -12v-174h36c34 0 47 24 54 55l8 34c22 83 92 106 155 106c11 0 22 -1 25 -12l23 -94c0 -2 1 -3 1 -5c0 -7 -4 -13 -11 -14l-18 -3
c-27 -5 -32 -20 -39 -38l-12 -36c-8 -25 -23 -47 -55 -56v-3c31 -9 53 -35 62 -72l7 -27c12 -49 28 -43 45 -46l12 -2c12 -2 15 -9 15 -17c0 -3 0 -5 -1 -8l-20 -88c-2 -11 -5 -15 -30 -15c-42 0 -141 -5 -166 114l-9 46c-7 32 -20 49 -52 49h-30zM447 669c3 -6 5 -10 5 -14
c0 -6 -5 -10 -16 -14l-234 -89c-5 -2 -9 -3 -12 -3c-6 0 -10 4 -15 14l-33 65c-3 6 -5 10 -5 13c0 5 4 9 14 15l213 130c7 4 11 7 15 7c5 0 8 -5 13 -15z" />
    <glyph glyph-name="afii10108" unicode="&#x45b;" horiz-adv-x="576" 
d="M527 352v-342c0 -7 -1 -10 -9 -10h-161c-7 0 -9 1 -9 7v331c0 17 -5 49 -37 49c-18 0 -38 -6 -63 -27v-351c0 -9 -4 -9 -11 -9h-156c-8 0 -12 0 -12 10v539h-75c-11 0 -14 3 -14 14v60c0 7 1 14 12 14h77v54c0 10 7 12 13 13l142 19c5 1 9 1 12 1c10 0 12 -4 12 -19v-68
h131c11 0 12 -7 12 -14v-60c0 -11 -3 -14 -14 -14h-129v-81c45 36 90 43 123 43c143 0 156 -106 156 -159z" />
    <glyph glyph-name="afii10193" unicode="&#x45f;" horiz-adv-x="555" 
d="M50 14v467c0 4 1 10 8 11l166 17c3 0 6 -1 6 -7v-370h95v349c0 4 1 10 8 11l166 17c4 0 6 -2 6 -8v-488c0 -9 -4 -13 -13 -13h-134v-146c0 -11 -1 -14 -14 -14h-132c-11 0 -14 3 -14 14v146h-134c-11 0 -14 3 -14 14z" />
    <glyph glyph-name="nbspace" unicode="&#xa0;" horiz-adv-x="233" 
 />
    <glyph glyph-name="afii10062" unicode="&#x40e;" horiz-adv-x="569" 
d="M455 887c0 -67 -48 -166 -165 -166c-114 0 -171 96 -171 164c0 10 4 15 12 16l116 14c18 0 5 -60 41 -60c37 0 21 60 40 60l116 -15c7 -1 11 -4 11 -13zM279 223h-97c-9 0 -10 4 -12 9l-160 424c-3 9 -5 13 -5 17c0 7 6 11 29 12l143 8c6 0 11 1 15 1c8 0 13 -3 18 -20
l51 -190c9 -33 16 -60 36 -143h5c20 93 28 125 33 150l37 181c4 17 7 22 18 22l153 -8c11 -1 21 -3 21 -12c0 -3 -1 -6 -4 -17l-124 -458c-52 -191 -133 -216 -222 -216c-69 0 -113 20 -128 27c-22 11 -27 16 -27 22c0 2 1 5 2 8l37 111c1 2 4 4 6 4c8 0 45 -27 92 -27
c44 0 65 19 76 66z" />
    <glyph glyph-name="afii10110" unicode="&#x45e;" horiz-adv-x="545" 
d="M445 702c0 -67 -48 -166 -165 -166c-114 0 -171 96 -171 164c0 10 4 15 12 16l116 14c18 0 5 -60 41 -60c37 0 21 60 40 60l116 -15c7 -1 11 -4 11 -13zM537 467l-125 -427c-35 -121 -56 -261 -227 -261c-30 0 -168 28 -168 65c0 3 1 7 3 11l48 95c2 5 6 7 10 7
c3 0 55 -34 91 -34c28 0 46 5 55 35l12 42h-34c-13 0 -14 0 -19 13l-169 452c-2 5 -3 9 -3 12c0 5 4 8 16 9l166 15c8 0 11 -2 13 -13l61 -247c9 -37 13 -89 17 -122c5 36 11 92 18 122l55 247c2 11 4 13 11 13l155 -15c13 -1 17 -4 17 -9c0 -3 -2 -6 -3 -10z" />
    <glyph glyph-name="afii10057" unicode="&#x408;" horiz-adv-x="490" 
d="M436 211c0 -146 -75 -228 -219 -228c-141 0 -210 63 -210 233c0 19 3 25 13 25h143c8 0 11 -4 11 -14c0 -80 2 -95 34 -95c30 0 33 24 33 64v343h-132c-19 0 -21 2 -21 21v106c0 17 2 20 21 20h306c17 0 21 -3 21 -20v-455z" />
    <glyph glyph-name="currency" unicode="&#xa4;" horiz-adv-x="714" 
d="M698 164l-105 -104l-102 100c-39 -25 -83 -39 -134 -39s-90 13 -134 39l-101 -104l-106 108l95 95c-26 40 -36 82 -36 127c0 46 10 84 36 125l-85 81l107 107l90 -89c38 25 82 38 134 38c51 0 91 -13 131 -36l89 88l107 -103l-84 -85c28 -44 37 -81 37 -127
s-10 -84 -35 -125zM469 385c0 60 -44 109 -112 109c-67 0 -108 -49 -108 -109s42 -109 108 -109s112 49 112 109z" />
    <glyph glyph-name="afii10050" unicode="&#x490;" horiz-adv-x="501" 
d="M248 530v-510c0 -16 -7 -20 -20 -20h-154c-13 0 -20 7 -20 20v646c0 16 7 20 20 20h247v147c0 9 2 16 14 16h143c11 0 13 -5 13 -14v-284c0 -14 -9 -21 -21 -21h-222z" />
    <glyph glyph-name="brokenbar" unicode="&#xa6;" horiz-adv-x="540" 
d="M363 350c0 -19 -2 -23 -21 -23h-144c-19 0 -20 4 -20 23v311c0 17 1 23 20 23h144c19 0 21 -6 21 -23v-311zM363 -148c0 -19 -2 -23 -21 -23h-144c-19 0 -20 4 -20 23v312c0 17 1 22 20 22h144c19 0 21 -5 21 -22v-312z" />
    <glyph glyph-name="section" unicode="&#xa7;" horiz-adv-x="592" 
d="M532 324c0 -57 -31 -109 -84 -142c40 -30 62 -61 62 -121c0 -96 -96 -176 -199 -176c-95 0 -173 31 -225 63c-8 5 -11 9 -11 14c0 3 1 7 3 12l38 106c2 6 6 8 10 8c3 0 6 0 9 -2c38 -19 123 -59 161 -59c23 0 38 5 38 25c0 25 -26 33 -57 47c-95 45 -207 84 -207 190
c0 60 29 113 94 146c-28 25 -62 46 -62 104c0 102 100 170 214 170c60 0 123 -21 180 -57c6 -4 8 -7 8 -11c0 -3 0 -6 -2 -10l-44 -94c-3 -7 -5 -10 -9 -10c-2 0 -5 1 -8 3c-33 19 -90 48 -116 48s-43 -7 -43 -28c0 -52 250 -84 250 -226zM368 303c0 30 -39 42 -77 61
c-40 -22 -55 -27 -55 -55c0 -30 38 -44 81 -62c33 20 51 27 51 56z" />
    <glyph glyph-name="afii10023" unicode="&#x401;" horiz-adv-x="516" 
d="M482 662l-17 -116c-2 -14 -9 -16 -22 -16h-195v-100h161c17 0 21 -2 21 -21v-115c0 -17 -4 -20 -21 -20h-161v-117h209c19 0 20 -3 20 -20v-116c0 -19 -1 -21 -20 -21h-382c-19 0 -21 2 -21 21v645c0 17 2 20 21 20h390c15 0 19 -3 19 -11c0 -3 -1 -8 -2 -13zM250 826
c0 -46 -36 -83 -80 -83s-81 37 -81 83c0 45 37 80 81 80s80 -35 80 -80zM453 826c0 -46 -37 -83 -81 -83s-80 37 -80 83c0 45 36 80 80 80s81 -35 81 -80z" />
    <glyph glyph-name="copyright" unicode="&#xa9;" horiz-adv-x="814" 
d="M767 343c0 -199 -160 -360 -360 -360c-199 0 -360 161 -360 360c0 200 161 360 360 360c200 0 360 -160 360 -360zM687 343c0 159 -125 287 -280 287c-154 0 -279 -128 -279 -287c0 -158 125 -286 279 -286c155 0 280 128 280 286zM536 177c1 -2 1 -4 1 -6
c0 -8 -9 -14 -17 -19c-27 -17 -70 -25 -100 -25c-116 0 -171 84 -171 220c0 71 13 123 50 162c31 32 72 50 118 50c38 0 83 -16 111 -39c4 -4 8 -6 8 -10c0 -2 0 -3 -1 -5l-29 -70c-1 -3 -4 -4 -7 -4c-2 0 -4 0 -6 1c-19 9 -45 31 -73 31c-27 0 -54 -23 -54 -104
c0 -107 30 -137 63 -137c30 0 54 19 65 26c2 1 4 2 6 2s4 -1 6 -5z" />
    <glyph glyph-name="afii10053" unicode="&#x404;" horiz-adv-x="522" 
d="M447 164l53 -102c2 -3 2 -6 2 -9c0 -5 -2 -9 -6 -13l-6 -5c-42 -36 -112 -52 -175 -52c-58 0 -135 9 -195 71c-74 76 -83 193 -83 287c0 108 11 362 268 362c46 0 84 -9 115 -22c28 -12 78 -42 78 -60c0 -3 -1 -6 -3 -9l-52 -92c-2 -3 -5 -5 -9 -5c-6 0 -53 43 -107 43
c-74 0 -95 -77 -95 -131v-7h153c12 0 15 -5 15 -16v-113c0 -7 -1 -17 -14 -17h-153c0 -79 20 -146 95 -146c40 0 65 15 90 30l13 8c2 1 5 2 8 2s6 -1 8 -4z" />
    <glyph glyph-name="guillemotleft" unicode="&#xab;" horiz-adv-x="688" 
d="M637 73c4 -6 7 -11 7 -16s-4 -10 -13 -13l-119 -43c-7 -2 -11 -4 -15 -4c-5 0 -8 3 -13 10l-161 230c-4 7 -7 10 -7 14c0 3 2 6 6 12l162 224c5 7 8 10 13 10c4 0 8 -2 15 -5l115 -48c9 -4 12 -8 12 -13c0 -4 -2 -9 -6 -16l-105 -171zM359 73c4 -6 7 -11 7 -16
s-4 -10 -13 -13l-119 -43c-7 -2 -11 -4 -15 -4c-5 0 -8 3 -13 10l-160 230c-4 7 -7 10 -7 14c0 3 2 6 6 12l161 224c5 7 8 10 13 10c4 0 8 -2 15 -5l115 -48c9 -4 12 -8 12 -13c0 -4 -2 -9 -6 -16l-105 -171z" />
    <glyph glyph-name="logicalnot" unicode="&#xac;" horiz-adv-x="540" 
d="M524 22c0 -19 -1 -22 -20 -22h-144c-19 0 -21 2 -21 21v116h-302c-19 0 -21 1 -21 20v121c0 17 2 20 21 20h467c19 0 20 -3 20 -20v-256z" />
    <glyph glyph-name="hyphen" unicode="-" horiz-adv-x="437" 
d="M398 196c0 -19 -2 -20 -21 -20h-318c-19 0 -20 1 -20 20v120c0 17 1 20 20 20h318c19 0 21 -3 21 -20v-120z" />
    <glyph glyph-name="registered" unicode="&#xae;" horiz-adv-x="488" 
d="M460 563c0 -120 -96 -216 -216 -216c-119 0 -216 96 -216 216s97 216 216 216c120 0 216 -96 216 -216zM412 563c0 95 -75 172 -168 172c-92 0 -167 -77 -167 -172s75 -172 167 -172c93 0 168 77 168 172zM353 453c1 -2 2 -4 2 -5c0 -2 -2 -3 -6 -4l-56 -10
c-2 0 -3 -1 -4 -1c-2 0 -3 1 -5 5l-47 97h-4v-89c0 -6 -1 -7 -7 -7h-54c-6 0 -8 1 -8 7v233c0 7 2 7 8 7h71c35 0 55 -4 70 -17c14 -12 22 -33 22 -54c0 -31 -15 -55 -36 -69zM272 611c0 19 -10 25 -28 25h-11v-51h9c23 0 30 7 30 26z" />
    <glyph glyph-name="afii10056" unicode="&#x407;" horiz-adv-x="360" 
d="M188 822c0 55 38 100 83 100c48 0 83 -45 83 -100s-35 -100 -83 -100c-45 0 -83 45 -83 100zM6 822c0 55 38 100 83 100c48 0 83 -45 83 -100s-35 -100 -83 -100c-45 0 -83 45 -83 100zM334 128v-114c0 -9 -2 -14 -13 -14h-277c-12 0 -16 2 -16 15v114c0 10 1 16 14 16
h39v395h-37c-10 0 -16 1 -16 14v115c0 16 6 17 20 17h266c19 0 20 -4 20 -20v-110c0 -12 -2 -16 -15 -16h-43v-395h42c15 0 16 -7 16 -17z" />
    <glyph glyph-name="degree" unicode="&#xb0;" horiz-adv-x="540" 
d="M427 528c0 -85 -71 -155 -157 -155s-156 70 -156 155c0 84 70 153 156 153s157 -69 157 -153zM320 528c0 27 -22 48 -49 48s-49 -21 -49 -48s22 -50 49 -50s49 23 49 50z" />
    <glyph glyph-name="plusminus" unicode="&#xb1;" horiz-adv-x="540" 
d="M504 389c0 -19 -2 -21 -21 -21h-120v-122c0 -19 -2 -21 -21 -21h-144c-17 0 -20 2 -20 21v122h-121c-19 0 -20 2 -20 21v123c0 17 2 20 21 20h120v121c0 19 3 21 20 21h144c19 0 21 -3 21 -22v-120h120c19 0 21 -3 21 -20v-123zM524 24c0 -19 -1 -21 -20 -21h-467
c-19 0 -21 2 -21 21v118c0 17 2 21 21 21h467c19 0 20 -4 20 -21v-118z" />
    <glyph glyph-name="afii10055" unicode="&#x406;" horiz-adv-x="360" 
d="M333 21c0 -19 -1 -21 -20 -21h-266c-19 0 -20 2 -20 21v103c0 19 1 21 20 21h33v395h-33c-19 0 -20 2 -20 21v105c0 17 1 20 20 20h266c19 0 20 -3 20 -20v-105c0 -19 -1 -21 -20 -21h-38v-395h38c19 0 20 -4 20 -21v-103z" />
    <glyph glyph-name="afii10103" unicode="&#x456;" horiz-adv-x="322" 
d="M279 659c-1 -57 -45 -108 -108 -108c-62 0 -107 51 -107 108s46 106 108 106c61 0 107 -50 107 -106zM268 13c0 -12 0 -13 -10 -13h-157c-12 0 -15 0 -15 13v339h-54c-12 0 -14 2 -14 13v114c0 13 2 15 14 15h222c13 0 14 -2 14 -15v-466z" />
    <glyph glyph-name="afii10098" unicode="&#x491;" horiz-adv-x="431" 
d="M50 13v466c0 14 3 15 9 15h207v127c0 7 4 13 11 13h125c13 0 14 -4 14 -12v-256c0 -13 -12 -14 -17 -14h-169v-342c0 -4 -1 -10 -15 -10h-150c-14 0 -15 2 -15 7v6z" />
    <glyph glyph-name="mu" unicode="&#xb5;" horiz-adv-x="585" 
d="M538 32c2 -5 4 -10 4 -13c0 -4 -2 -6 -6 -7l-130 -25h-13c-16 0 -21 18 -32 45c-34 -32 -79 -45 -123 -45v-162c0 -13 -2 -15 -11 -16l-159 -19c-8 0 -9 5 -9 18v668c0 15 1 18 14 19l145 15c6 1 10 1 13 1c6 0 7 -2 7 -11v-340c0 -37 10 -54 40 -54c26 0 43 9 62 27v345
c0 15 0 17 13 18l146 14c5 0 8 1 11 1c8 0 9 -3 9 -13v-363c0 -50 7 -78 19 -103z" />
    <glyph glyph-name="paragraph" unicode="&#xb6;" horiz-adv-x="752" 
d="M739 565c0 -17 -2 -21 -19 -21h-26v-710c0 -19 -2 -20 -21 -20h-95c-19 0 -35 1 -35 20v710h-98v-710c0 -19 -2 -20 -21 -20h-114c-17 0 -20 1 -20 20v313c-13 -4 -18 -5 -36 -5c-149 0 -242 97 -242 263c0 185 70 281 302 281h406c17 0 19 -3 19 -20v-101zM290 279v264
c-72 0 -95 -33 -95 -122c0 -124 36 -146 69 -146c12 0 20 2 26 4z" />
    <glyph glyph-name="periodcentered" unicode="&#xb7;" horiz-adv-x="296" 
d="M282 363c0 -75 -59 -135 -134 -135s-135 60 -135 135s60 136 135 136s134 -61 134 -136z" />
    <glyph glyph-name="afii10071" unicode="&#x451;" horiz-adv-x="534" 
d="M504 224c0 -13 -6 -14 -16 -14h-283c6 -70 34 -97 84 -97c60 0 91 16 129 37c5 3 8 4 11 4c5 0 9 -4 13 -11l45 -84c2 -3 3 -6 3 -8c0 -4 -3 -7 -10 -11c-68 -46 -141 -57 -196 -57c-166 0 -251 98 -251 260c0 154 92 268 246 268c158 0 225 -103 225 -287zM335 317
c-4 65 -23 84 -62 84c-42 0 -58 -21 -68 -84h130zM256 632c0 -44 -35 -81 -79 -81c-43 0 -80 37 -80 81c0 43 37 79 80 79c44 0 79 -36 79 -79zM452 632c0 -44 -36 -81 -80 -81s-79 37 -79 81c0 43 35 79 79 79s80 -36 80 -79z" />
    <glyph glyph-name="afii61352" unicode="&#x2116;" horiz-adv-x="1000" 
d="M581 672v-657c0 -10 -2 -15 -13 -15h-126c-15 0 -18 7 -23 15l-160 283c-13 23 -23 47 -32 69l-14 35l7 -44c4 -28 8 -50 8 -72v-265c0 -20 -4 -21 -21 -21h-136c-15 0 -17 2 -17 17v653c0 13 5 16 17 16h137c13 0 16 -6 20 -12l148 -254c8 -13 14 -29 29 -66l16 -40
l-7 51c-3 22 -6 45 -6 66v239c0 11 3 16 16 16h141c10 0 16 -1 16 -14zM805 703c133 0 160 -103 160 -172c0 -167 -117 -175 -161 -175c-60 0 -158 23 -158 175c0 70 29 172 159 172zM805 625c-42 0 -43 -49 -43 -97c0 -41 1 -94 43 -94c43 0 44 52 44 95c0 44 -1 96 -44 96
zM954 257v-55c0 -20 -3 -20 -21 -20h-256c-19 0 -20 1 -20 20v55c0 16 1 20 20 20h256c18 0 21 -2 21 -20z" />
    <glyph glyph-name="afii10101" unicode="&#x454;" horiz-adv-x="475" 
d="M440 435l-45 -81c-1 -2 -4 -5 -8 -5c-3 0 -6 1 -10 4l-11 8c-13 10 -36 28 -74 28c-65 0 -78 -51 -78 -86h113c11 0 14 -3 14 -14v-79c0 -11 -3 -14 -14 -14h-116c0 -68 42 -91 78 -91c54 0 78 39 102 39c5 0 8 -3 9 -6l37 -84c1 -3 2 -5 2 -7c0 -5 -3 -7 -7 -11
c-41 -38 -114 -53 -167 -53c-51 0 -115 7 -165 57c-63 63 -67 157 -67 199c0 66 10 148 72 209c55 54 123 63 170 63c53 0 167 -26 167 -68c0 -2 -1 -5 -2 -8z" />
    <glyph glyph-name="guillemotright" unicode="&#xbb;" horiz-adv-x="683" 
d="M644 263c4 -6 6 -9 6 -12c0 -4 -3 -7 -7 -14l-161 -230c-5 -7 -8 -10 -13 -10c-4 0 -8 2 -15 4l-119 43c-9 3 -13 8 -13 13s3 10 7 16l109 171l-105 171c-4 7 -6 12 -6 16c0 5 3 9 12 13l115 48c7 3 11 5 15 5c5 0 8 -3 13 -10zM366 263c4 -6 6 -9 6 -12
c0 -4 -3 -7 -7 -14l-161 -230c-5 -7 -8 -10 -13 -10c-3 0 -7 2 -14 4l-120 43c-9 3 -13 8 -13 13s3 10 7 16l109 171l-105 171c-4 7 -6 12 -6 16c0 5 3 9 12 13l116 48c7 3 12 5 15 5c4 0 7 -3 12 -10z" />
    <glyph glyph-name="afii10105" unicode="&#x458;" horiz-adv-x="329" 
d="M286 659c-1 -57 -45 -108 -108 -108c-62 0 -107 51 -107 108s46 106 108 106c61 0 107 -50 107 -106zM275 14c0 -111 -7 -151 -47 -194c-35 -37 -92 -56 -155 -56c-65 0 -143 25 -143 42c0 3 1 6 2 10l34 109c1 5 5 6 9 6c2 0 5 0 7 -1c33 -13 50 -22 77 -22
c31 0 34 26 34 106v338h-54c-12 0 -14 1 -14 13v114c0 14 2 15 14 15h222c14 0 14 -2 14 -15v-465z" />
    <glyph glyph-name="afii10054" unicode="&#x405;" horiz-adv-x="545" 
d="M513 207c0 -133 -100 -220 -248 -220c-70 0 -236 35 -236 74c0 2 0 4 1 6l36 128c2 6 5 9 10 9c3 0 6 -1 9 -3c53 -32 133 -56 180 -56c42 0 62 20 62 50c0 43 -21 53 -121 99c-101 47 -171 87 -171 200c0 128 99 205 247 205c91 0 218 -40 218 -74c0 -2 0 -3 -1 -5
l-43 -117c-2 -5 -5 -7 -8 -7c-2 0 -5 1 -8 2c-39 18 -107 46 -153 46c-47 0 -63 -17 -63 -41c0 -27 20 -39 75 -64c116 -53 214 -97 214 -232z" />
    <glyph glyph-name="afii10102" unicode="&#x455;" horiz-adv-x="470" 
d="M440 144c0 -110 -84 -161 -196 -161c-105 0 -216 36 -216 61c0 4 1 8 3 13l29 103c2 6 6 9 11 9c16 0 115 -52 158 -52c26 0 41 6 41 28c0 24 -31 30 -76 48c-77 31 -148 52 -148 160c0 102 89 158 203 158c91 0 128 -20 167 -41c6 -3 8 -7 8 -11c0 -3 -1 -7 -3 -11
l-36 -95c-3 -6 -5 -9 -9 -9c-2 0 -5 1 -8 2c-30 12 -76 34 -110 34c-22 0 -44 -4 -44 -25c0 -24 25 -29 63 -44c90 -37 163 -59 163 -167z" />
    <glyph glyph-name="afii10104" unicode="&#x457;" horiz-adv-x="323" 
d="M269 479v-472c0 -7 -4 -7 -8 -7h-162c-10 0 -12 3 -12 13v339h-57c-10 0 -11 4 -11 13v114c0 10 2 15 14 15h222c13 0 14 -4 14 -12v-3zM0 637c0 66 42 100 75 100c36 0 75 -34 75 -100s-39 -100 -75 -100c-33 0 -75 34 -75 100zM164 637c0 66 42 100 75 100
c36 0 75 -34 75 -100s-39 -100 -75 -100c-33 0 -75 34 -75 100z" />
    <glyph glyph-name="afii10017" unicode="&#x410;" horiz-adv-x="646" 
d="M631 24c1 -5 2 -9 2 -12c0 -9 -5 -12 -20 -12h-169c-17 0 -18 1 -22 17l-38 143h-131l-41 -143c-5 -16 -5 -17 -21 -17h-156c-16 0 -21 4 -21 10c0 4 2 9 4 14l209 645c4 15 5 17 22 17h149c16 0 17 -1 23 -17zM356 295l-20 117c-5 28 -14 84 -18 114
c-4 -32 -11 -85 -17 -114l-26 -117h81z" />
    <glyph glyph-name="afii10018" unicode="&#x411;" horiz-adv-x="577" 
d="M242 530v-106h75c46 0 121 -5 173 -53c48 -45 57 -108 57 -153c0 -202 -164 -218 -254 -218h-219c-18 0 -20 11 -20 20v646c0 18 11 20 20 20h409c12 0 15 -5 15 -10c0 -4 -2 -8 -2 -11l-22 -119c-3 -14 -15 -16 -23 -16h-209zM242 292v-147h31c43 0 92 8 92 74
c0 55 -38 73 -78 73h-45z" />
    <glyph glyph-name="afii10019" unicode="&#x412;" horiz-adv-x="589" 
d="M552 204c0 -88 -57 -173 -141 -193c-39 -9 -58 -11 -130 -11h-206c-19 0 -21 2 -21 21v645c0 17 2 20 21 20h197c109 0 153 -8 196 -46c38 -34 60 -87 60 -140c0 -61 -22 -106 -82 -138c74 -33 106 -88 106 -158zM350 484c0 44 -14 64 -71 64h-37v-132h41
c49 0 67 23 67 68zM370 213c0 48 -13 71 -95 71h-33v-139h41c69 0 87 26 87 68z" />
    <glyph glyph-name="afii10020" unicode="&#x413;" horiz-adv-x="491" 
d="M482 662l-17 -116c-2 -16 -7 -16 -22 -16h-195v-509c0 -19 -4 -21 -21 -21h-152c-19 0 -21 2 -21 21v645c0 19 2 20 21 20h390c15 0 19 -3 19 -11c0 -3 -1 -8 -2 -13z" />
    <glyph glyph-name="afii10021" unicode="&#x414;" horiz-adv-x="647" 
d="M476 0h-310v-149c0 -12 -5 -14 -15 -14h-135c-11 0 -16 3 -16 15v285c0 15 9 18 17 18h44c51 94 71 180 71 379v137c0 12 5 15 16 15h412c8 0 15 -1 15 -12v-519h50c10 0 17 -5 17 -18v-288c0 -8 -4 -12 -12 -12h-139c-10 0 -15 3 -15 15v148zM389 155v376h-86v-98
c0 -55 -9 -105 -18 -148c-10 -45 -19 -81 -44 -130h148z" />
    <glyph glyph-name="afii10022" unicode="&#x415;" horiz-adv-x="516" 
d="M482 662l-17 -116c-2 -14 -9 -16 -22 -16h-195v-100h161c17 0 21 -2 21 -21v-115c0 -17 -4 -20 -21 -20h-161v-117h209c19 0 20 -3 20 -20v-116c0 -19 -1 -21 -20 -21h-382c-19 0 -21 2 -21 21v645c0 17 2 20 21 20h390c15 0 19 -3 19 -11c0 -3 -1 -8 -2 -13z" />
    <glyph glyph-name="afii10024" unicode="&#x416;" horiz-adv-x="870" 
d="M525 281v-265c0 -9 -1 -16 -13 -16h-150c-10 0 -17 2 -17 14v267h-21c-39 0 -58 -22 -65 -58l-19 -109c-5 -28 -13 -61 -37 -85c-31 -31 -89 -46 -143 -46c-17 0 -19 6 -22 15l-37 123c0 3 1 7 6 8l26 5c38 7 47 27 54 54l17 73c8 37 28 80 82 96v3c-41 15 -68 50 -76 93
l-10 53c-5 33 -23 49 -54 55l-19 3c-7 1 -13 6 -13 14c0 2 0 3 1 5l33 107c2 8 4 12 21 12c67 0 159 -37 178 -140l11 -63c5 -28 6 -73 69 -73h18v245c0 12 5 15 16 15h149c8 0 15 -1 15 -12v-248h15c67 0 67 44 72 73l11 63c19 103 111 140 178 140c17 0 19 -4 21 -12
l33 -107c1 -2 1 -3 1 -5c0 -8 -6 -13 -13 -14l-19 -3c-31 -6 -49 -22 -54 -55l-10 -53c-8 -43 -35 -78 -76 -93v-3c54 -16 74 -59 82 -96l17 -73c7 -27 16 -47 54 -54l26 -5c5 -1 6 -5 6 -8l-37 -123c-3 -9 -5 -15 -22 -15c-54 0 -112 15 -143 46c-24 24 -32 57 -37 85
l-19 109c-7 36 -26 58 -65 58h-21z" />
    <glyph glyph-name="afii10025" unicode="&#x417;" horiz-adv-x="483" 
d="M121 304v92c0 13 7 20 20 20h21c44 0 95 13 95 70c0 26 -12 72 -75 72c-16 0 -37 -4 -59 -16c-18 -10 -35 -29 -52 -29c-5 0 -8 2 -9 5l-45 88c-2 4 -3 8 -3 11c0 7 3 13 10 20c51 51 131 66 197 66c67 0 220 -24 220 -187c0 -50 -23 -128 -99 -153
c113 -39 121 -126 121 -172c0 -193 -165 -208 -235 -208c-28 0 -85 2 -138 21c-31 11 -85 37 -85 64c0 3 0 6 2 10l42 95c2 5 6 7 10 7c5 0 10 -3 13 -5c30 -19 46 -47 122 -47c37 0 85 19 85 78c0 58 -43 78 -95 78h-43c-13 0 -20 7 -20 20z" />
    <glyph glyph-name="afii10026" unicode="&#x418;" horiz-adv-x="656" 
d="M602 672v-660c0 -11 -7 -12 -15 -12h-151c-11 0 -16 3 -16 15v250c0 49 6 133 9 167h-5c-11 -36 -27 -82 -78 -205l-88 -211c-3 -6 -8 -16 -20 -16h-172c-8 0 -12 4 -12 12v659c0 12 5 15 16 15h154c8 0 12 -4 12 -12v-197c0 -59 -8 -178 -9 -186h6c33 88 48 116 79 194
l74 187c3 7 8 14 21 14h179c9 0 16 -2 16 -14z" />
    <glyph glyph-name="afii10027" unicode="&#x419;" horiz-adv-x="656" 
d="M402 904l99 -15c11 -2 11 -10 11 -14v-3c0 -111 -135 -138 -190 -138c-67 0 -190 34 -190 139v2c0 5 1 12 11 14l95 15c3 0 6 1 8 1c4 0 7 -2 10 -9l4 -12c11 -29 29 -49 63 -49c29 0 51 16 61 50l3 10c2 6 5 9 12 9h3zM602 672v-660c0 -11 -7 -12 -15 -12h-151
c-11 0 -16 3 -16 15v250c0 49 6 133 9 167h-5c-11 -36 -27 -82 -78 -205l-88 -211c-3 -6 -8 -16 -20 -16h-172c-8 0 -12 4 -12 12v659c0 12 5 15 16 15h154c8 0 12 -4 12 -12v-197c0 -59 -8 -178 -9 -186h6c33 88 48 116 79 194l74 187c3 7 8 14 21 14h179c9 0 16 -2 16 -14
z" />
    <glyph glyph-name="afii10028" unicode="&#x41a;" horiz-adv-x="616" 
d="M248 281v-269c0 -9 -6 -12 -11 -12h-167c-15 0 -16 7 -16 17v654c0 12 5 15 16 15h166c8 0 12 -4 12 -12v-248h32c44 0 64 26 72 75l11 59c19 103 110 143 181 143c16 0 23 -4 26 -13l31 -106c1 -2 1 -4 1 -6c0 -9 -8 -12 -11 -13l-26 -7c-24 -6 -39 -23 -46 -61l-11 -50
c-7 -31 -28 -72 -79 -87v-3c54 -17 83 -58 92 -106l11 -57c10 -50 30 -53 50 -59l20 -5c6 -2 15 -5 15 -14c0 -2 0 -3 -1 -5l-36 -113c-3 -8 -5 -15 -23 -15c-67 0 -172 12 -191 136l-16 103c-6 38 -29 59 -68 59h-34z" />
    <glyph glyph-name="afii10029" unicode="&#x41b;" horiz-adv-x="631" 
d="M303 528v-57c0 -62 -1 -139 -7 -205c-5 -62 -17 -154 -76 -214c-51 -51 -139 -69 -173 -69c-13 0 -17 4 -19 9l-38 120c0 1 -1 2 -1 3c0 6 4 12 10 14l18 4c24 5 49 10 69 31c51 51 44 256 44 383v119c0 11 7 20 21 20h406c13 0 20 -7 20 -20v-648c0 -12 0 -18 -15 -18
h-155c-15 0 -18 4 -18 17v511h-86z" />
    <glyph glyph-name="afii10030" unicode="&#x41c;" horiz-adv-x="731" 
d="M687 22v-6c0 -12 -3 -16 -20 -16h-145c-19 0 -21 4 -21 21l-3 227c0 28 5 138 9 182c-13 -51 -37 -133 -43 -156l-32 -117c-4 -16 -7 -16 -23 -16h-89c-16 0 -19 0 -23 17l-29 116c-6 25 -27 110 -38 156c3 -45 4 -154 4 -182l-2 -227c0 -18 -3 -21 -20 -21h-147
c-16 0 -20 4 -20 16l41 650c1 17 4 20 21 20h154c15 0 18 -1 23 -16l61 -196c8 -27 17 -66 24 -95c7 29 19 68 27 94l64 197c5 15 6 16 22 16h148c16 0 20 -3 21 -20z" />
    <glyph glyph-name="afii10031" unicode="&#x41d;" horiz-adv-x="626" 
d="M572 21c0 -19 -2 -21 -21 -21h-153c-19 0 -20 2 -20 21v251h-130v-251c0 -19 -4 -21 -21 -21h-153c-19 0 -20 2 -20 21v645c0 17 1 20 20 20h153c17 0 21 -3 21 -20v-236h130v236c0 17 1 20 20 20h153c19 0 21 -3 21 -20v-645z" />
    <glyph glyph-name="afii10032" unicode="&#x41e;" horiz-adv-x="628" 
d="M314 703c62 0 136 -14 194 -77c77 -83 83 -213 83 -283s-6 -200 -83 -283c-58 -63 -132 -77 -194 -77s-136 14 -194 77c-77 83 -83 213 -83 283s6 200 83 283c58 63 132 77 194 77zM314 559c-71 0 -81 -139 -81 -216c0 -134 27 -180 44 -199c11 -12 22 -17 37 -17
c74 0 81 149 81 216c0 146 -32 187 -44 199c-10 10 -22 17 -37 17z" />
    <glyph glyph-name="afii10033" unicode="&#x41f;" horiz-adv-x="611" 
d="M557 21c0 -19 -2 -21 -21 -21h-153c-19 0 -20 2 -20 21v507h-115v-507c0 -19 -4 -21 -21 -21h-153c-19 0 -20 2 -20 21v645c0 17 1 20 20 20h462c19 0 21 -3 21 -20v-645z" />
    <glyph glyph-name="afii10034" unicode="&#x420;" horiz-adv-x="556" 
d="M529 488c0 -139 -99 -232 -249 -232h-31v-235c0 -19 -4 -21 -21 -21h-153c-19 0 -21 2 -21 21v645c0 19 2 20 21 20h197c97 0 152 -11 194 -47c39 -34 63 -92 63 -151zM354 478c0 52 -27 68 -77 68h-28v-144h23c62 0 82 21 82 76z" />
    <glyph glyph-name="afii10035" unicode="&#x421;" horiz-adv-x="540" 
d="M514 67c2 -4 2 -7 2 -10c0 -40 -131 -74 -193 -74c-194 0 -286 141 -286 367c0 119 21 206 83 271c51 54 120 82 197 82c63 0 139 -24 185 -63c8 -6 12 -11 12 -18c0 -3 -1 -5 -2 -9l-48 -115c-3 -6 -7 -8 -11 -8c-3 0 -5 1 -8 2c-32 15 -76 52 -123 52
c-46 0 -89 -39 -89 -174c0 -178 48 -228 103 -228c63 0 111 48 120 48c3 0 6 -3 9 -9z" />
    <glyph glyph-name="afii10036" unicode="&#x422;" horiz-adv-x="513" 
d="M521 662l-23 -125c-3 -14 -6 -17 -21 -17h-121v-499c0 -19 -1 -21 -20 -21h-153c-19 0 -21 2 -21 21v499h-129c-19 0 -21 2 -21 21v125c0 17 2 20 21 20h470c15 0 19 -3 19 -12c0 -3 0 -7 -1 -12z" />
    <glyph glyph-name="afii10037" unicode="&#x423;" horiz-adv-x="569" 
d="M279 223h-97c-9 0 -10 4 -12 9l-160 424c-3 9 -5 13 -5 17c0 7 6 11 29 12l143 8c6 0 11 1 15 1c8 0 13 -3 18 -20l51 -190c9 -33 16 -60 36 -143h5c20 93 28 125 33 150l37 181c4 17 7 22 18 22l153 -8c11 -1 21 -3 21 -12c0 -3 -1 -6 -4 -17l-124 -458
c-52 -191 -133 -216 -222 -216c-69 0 -113 20 -128 27c-22 11 -27 16 -27 22c0 2 1 5 2 8l37 111c1 2 4 4 6 4c8 0 45 -27 92 -27c44 0 65 19 76 66z" />
    <glyph glyph-name="afii10038" unicode="&#x424;" horiz-adv-x="782" 
d="M488 102v-87c0 -12 -3 -15 -15 -15h-163c-13 0 -16 5 -16 16v86h-14c-42 0 -126 3 -187 66c-55 57 -63 137 -63 200c0 47 3 138 63 200c62 64 153 66 185 66h16v89c0 12 2 17 17 17h162c10 0 15 -2 15 -13v-93h16c32 0 123 -2 185 -66c60 -62 63 -153 63 -200
c0 -63 -8 -143 -63 -200c-61 -63 -145 -66 -187 -66h-14zM481 506v-276h16c81 0 87 73 87 137c0 67 -7 139 -90 139h-13zM301 506h-13c-61 0 -90 -28 -90 -139c0 -85 16 -137 87 -137h16v276z" />
    <glyph glyph-name="afii10039" unicode="&#x425;" horiz-adv-x="623" 
d="M614 28c4 -7 7 -12 7 -16c0 -6 -5 -10 -18 -11l-165 -15c-5 0 -8 -1 -11 -1c-5 0 -9 2 -14 12l-83 170c-6 13 -10 28 -17 49c-5 -22 -11 -37 -18 -50l-84 -168c-4 -10 -7 -13 -12 -13c-3 0 -8 1 -14 2l-162 18c-12 1 -17 5 -17 11c0 4 2 10 6 17l191 330l-169 278
c-4 6 -6 11 -6 15c0 6 5 11 18 13l160 27c6 1 11 2 14 2c5 0 7 -3 12 -14l60 -132c7 -15 15 -32 20 -51c6 20 11 36 17 51l55 134c5 11 8 14 14 14c3 0 7 -1 12 -2l159 -29c13 -2 17 -6 17 -11c0 -4 -2 -9 -6 -16l-158 -281z" />
    <glyph glyph-name="afii10040" unicode="&#x426;" horiz-adv-x="632" 
d="M368 158v513c0 8 2 15 14 15h168c8 0 12 -4 12 -12v-516h45c13 0 20 -7 20 -20v-289c0 -11 -7 -12 -15 -12h-135c-11 0 -16 3 -16 15v148h-394c-7 0 -13 4 -13 13v658c0 12 5 15 16 15h163c8 0 15 -1 15 -12v-516h120z" />
    <glyph glyph-name="afii10041" unicode="&#x427;" horiz-adv-x="609" 
d="M361 15v244c-37 -18 -74 -26 -123 -26c-41 0 -102 6 -147 47c-49 44 -51 95 -51 142v248c0 16 9 16 14 16h167c4 0 13 0 13 -13v-218c0 -65 35 -77 65 -77c24 0 44 6 62 16v276c0 16 8 16 15 16h163c15 0 16 -5 16 -10v-3v-663c0 -5 -1 -10 -16 -10h-164
c-5 0 -14 1 -14 15z" />
    <glyph glyph-name="afii10042" unicode="&#x428;" horiz-adv-x="898" 
d="M654 158v514c0 13 9 14 13 14h165c8 0 12 -4 12 -12v-656c0 -8 -3 -18 -18 -18h-758c-10 0 -14 6 -14 12v659c0 8 2 15 14 15h164c8 0 12 -4 12 -12v-516h110v514c0 13 9 14 13 14h166c5 0 11 -3 11 -12v-516h110z" />
    <glyph glyph-name="afii10043" unicode="&#x429;" horiz-adv-x="914" 
d="M743 0h-675c-10 0 -14 6 -14 12v659c0 8 2 15 14 15h164c8 0 12 -4 12 -12v-516h110v514c0 13 9 14 13 14h166c5 0 11 -3 11 -12v-516h110v514c0 13 9 14 13 14h165c8 0 12 -4 12 -12v-516h45c18 0 20 -11 20 -20v-287c0 -13 -7 -14 -11 -14h-141c-4 0 -14 1 -14 14v149z
" />
    <glyph glyph-name="afii10044" unicode="&#x42a;" horiz-adv-x="703" 
d="M180 20v500h-165c-10 0 -15 7 -15 16l25 138c2 11 10 12 18 12h309c15 0 16 -7 16 -17v-240h75c42 0 123 -4 176 -55c49 -48 54 -116 54 -152c0 -215 -162 -222 -254 -222h-219c-13 0 -20 7 -20 20zM368 297v-152h31c53 0 92 16 92 75c0 36 -12 77 -79 77h-44z" />
    <glyph glyph-name="afii10045" unicode="&#x42b;" horiz-adv-x="849" 
d="M795 671v-654c0 -8 -1 -17 -13 -17h-169c-9 0 -12 5 -12 13v661c0 7 6 12 12 12h169c7 0 13 -6 13 -15zM54 20v651c0 13 9 15 18 15h157c4 0 13 -1 13 -14v-243h69c46 0 121 -5 173 -53c49 -45 57 -108 57 -150c0 -221 -162 -226 -254 -226h-213c-16 0 -20 7 -20 20z
M242 297v-152h31c53 0 92 16 92 75s-35 77 -96 77h-27z" />
    <glyph glyph-name="afii10046" unicode="&#x42c;" horiz-adv-x="577" 
d="M54 20v651c0 13 9 15 18 15h157c4 0 13 -1 13 -14v-243h75c42 0 123 -4 176 -55c49 -48 54 -116 54 -152c0 -215 -162 -222 -254 -222h-219c-13 0 -20 7 -20 20zM242 297v-152h31c53 0 92 17 92 73c0 37 -11 79 -79 79h-44z" />
    <glyph glyph-name="afii10047" unicode="&#x42d;" horiz-adv-x="540" 
d="M32 72l46 98c1 1 3 4 7 4c3 0 6 -1 12 -5l14 -10c37 -27 68 -31 92 -31c78 0 104 79 104 146h-153c-13 0 -14 12 -14 20v110c0 12 7 16 15 16h153c0 36 -10 138 -99 138c-56 0 -110 -46 -115 -46s-9 3 -10 6l-47 90c-2 3 -2 6 -2 9c0 37 121 86 198 86
c64 0 127 -15 180 -67c83 -82 90 -207 90 -287c0 -88 -10 -220 -89 -299c-59 -58 -132 -67 -190 -67c-33 0 -78 4 -119 21c-27 11 -75 37 -75 59c0 3 1 6 2 9z" />
    <glyph glyph-name="afii10048" unicode="&#x42e;" horiz-adv-x="899" 
d="M586 559c-43 0 -81 -39 -81 -215c0 -51 0 -216 81 -216c14 0 25 3 37 15c17 17 43 59 43 201c0 179 -41 215 -80 215zM248 427h70c5 73 26 155 81 209c57 56 132 67 186 67c56 0 129 -11 187 -67c87 -84 90 -228 90 -293s-3 -209 -90 -293c-58 -56 -131 -67 -187 -67
c-54 0 -127 11 -185 67c-65 63 -80 158 -82 223h-70v-261c0 -11 -7 -12 -15 -12h-165c-12 0 -14 7 -14 15v656c0 12 5 15 16 15h165c8 0 13 -3 13 -12v-247z" />
    <glyph glyph-name="afii10049" unicode="&#x42f;" horiz-adv-x="609" 
d="M298 686h237c19 0 20 -10 20 -20v-654c0 -8 -2 -12 -20 -12h-161c-9 0 -13 2 -13 21v242h-27c-46 0 -64 -23 -71 -61l-14 -72c-6 -33 -13 -67 -41 -96c-37 -40 -105 -51 -147 -51c-23 0 -25 5 -28 15l-33 103c-1 2 -1 5 -1 7c0 8 6 15 15 17l13 3c44 11 47 31 53 53
l13 51c8 34 30 81 81 101v2c-94 26 -117 102 -117 158c0 176 160 193 241 193zM361 403v143h-48c-27 0 -72 -3 -72 -71c0 -66 45 -72 70 -72h50z" />
    <glyph glyph-name="afii10065" unicode="&#x430;" horiz-adv-x="523" 
d="M489 36c1 -4 2 -7 2 -10s-1 -5 -7 -7l-107 -31c-6 -2 -12 -3 -19 -3c-14 0 -19 13 -34 48c-38 -31 -74 -47 -119 -47c-109 0 -172 61 -172 159c0 141 136 175 266 175v29c0 18 -6 30 -58 30c-31 0 -71 -11 -120 -31c-3 -2 -6 -2 -8 -2c-4 0 -7 2 -9 8l-36 99
c-1 4 -2 6 -2 8c0 5 4 7 13 12c50 28 119 38 185 38c128 0 202 -53 202 -172v-182c0 -69 13 -96 23 -121zM299 130v85c-84 0 -111 -25 -111 -63c0 -34 22 -54 48 -54c20 0 43 12 63 32z" />
    <glyph glyph-name="afii10066" unicode="&#x431;" horiz-adv-x="562" 
d="M468 777l40 -102c1 -2 1 -5 1 -7c0 -7 -4 -14 -14 -18l-166 -64c-34 -13 -95 -41 -126 -72c-33 -33 -41 -70 -41 -98v-5h6c44 70 117 77 152 77c41 0 98 -7 145 -55c58 -59 64 -142 64 -186c0 -51 -7 -132 -69 -196c-57 -58 -128 -68 -181 -68s-121 12 -171 64
c-68 71 -68 182 -68 302c0 136 13 271 221 358l182 77c3 1 7 2 10 2c6 0 12 -3 15 -9zM284 105c58 0 67 66 67 130c0 60 -10 85 -14 94c-10 23 -25 37 -53 37c-54 0 -67 -60 -67 -124c0 -63 8 -87 12 -97c11 -26 29 -40 55 -40z" />
    <glyph glyph-name="afii10067" unicode="&#x432;" horiz-adv-x="545" 
d="M294 0h-230c-11 0 -14 1 -14 14v466c0 11 1 14 14 14h229c70 0 112 -1 145 -19c29 -16 57 -47 57 -105c0 -29 -8 -87 -75 -108c75 -18 90 -78 90 -114c0 -33 -4 -70 -37 -101c-46 -43 -125 -47 -179 -47zM222 387v-86h53c19 0 49 3 49 45c0 30 -27 41 -46 41h-56z
M222 201v-94h60c39 0 54 24 54 47c0 35 -30 47 -56 47h-58z" />
    <glyph glyph-name="afii10068" unicode="&#x433;" horiz-adv-x="431" 
d="M50 9v474c0 7 2 11 11 11h339c9 0 11 -5 11 -11l-16 -109c-2 -16 -8 -22 -25 -22h-140v-339c0 -6 -2 -13 -11 -13h-160c-7 0 -9 2 -9 9z" />
    <glyph glyph-name="afii10069" unicode="&#x434;" horiz-adv-x="575" 
d="M508 480v-358h47c8 0 10 -4 10 -12v-236c0 -11 -1 -14 -14 -14h-122c-11 0 -14 3 -14 14v126h-265v-126c0 -11 -1 -14 -14 -14h-122c-11 0 -14 3 -14 14v234c0 8 0 14 10 14h43c35 62 46 118 49 140c5 34 7 78 7 170v48c0 11 1 14 14 14h371c11 0 14 -3 14 -14zM342 122
v250h-85v-33c0 -84 -16 -162 -42 -217h127z" />
    <glyph glyph-name="afii10070" unicode="&#x435;" horiz-adv-x="534" 
d="M504 224c0 -13 -6 -14 -16 -14h-283c6 -70 34 -97 84 -97c60 0 91 16 129 37c5 3 8 4 11 4c5 0 9 -4 13 -11l45 -84c2 -3 3 -6 3 -8c0 -4 -3 -7 -10 -11c-68 -46 -141 -57 -196 -57c-166 0 -251 98 -251 260c0 154 92 268 246 268c158 0 225 -103 225 -287zM335 317
c-4 65 -23 84 -62 84c-42 0 -58 -21 -68 -84h130z" />
    <glyph glyph-name="afii10072" unicode="&#x436;" horiz-adv-x="762" 
d="M461 192v-184c0 -7 -2 -8 -7 -8h-144c-8 0 -9 7 -9 13v179h-16c-36 0 -49 -22 -57 -55l-9 -43c-17 -73 -68 -111 -162 -111c-14 0 -24 1 -27 15l-20 96c0 8 5 15 14 17l14 2c32 5 35 23 41 41l8 27c8 26 25 66 71 77v3c-39 8 -54 36 -59 58l-6 24c-9 35 -24 37 -46 41
l-12 2c-7 1 -13 6 -13 14c0 2 0 4 1 6l24 93c3 11 14 12 26 12c90 0 130 -49 142 -104l7 -32c7 -37 25 -51 60 -51h19v157c0 11 6 11 14 12l140 16c3 0 6 -1 6 -7v-178h19c35 0 53 14 60 51l7 32c12 55 52 104 142 104c12 0 23 -1 26 -12l24 -93c1 -2 1 -4 1 -6
c0 -8 -6 -13 -13 -14l-12 -2c-22 -4 -37 -6 -46 -41l-6 -24c-5 -22 -20 -50 -59 -58v-3c46 -11 63 -51 71 -77l8 -27c6 -18 9 -36 41 -41l14 -2c9 -2 14 -9 14 -17l-20 -96c-3 -14 -13 -15 -27 -15c-94 0 -145 38 -162 111l-9 43c-8 33 -21 55 -57 55h-16z" />
    <glyph glyph-name="afii10073" unicode="&#x437;" horiz-adv-x="434" 
d="M56 362l-31 72c-1 3 -2 5 -2 7c0 8 6 14 11 18c45 40 117 52 174 52c55 0 190 -25 190 -146c0 -43 -20 -89 -75 -107v-3c63 -18 86 -72 86 -117c0 -130 -135 -155 -203 -155c-102 0 -191 41 -191 68c0 3 1 5 2 8l31 70c2 5 6 7 10 7c15 0 55 -37 110 -37c24 0 69 6 69 51
c0 44 -30 47 -72 47h-38c-12 0 -14 7 -14 14v79c0 11 3 14 14 14h37c30 0 65 8 65 43c0 43 -38 48 -61 48c-26 0 -48 -8 -72 -21l-20 -11c-4 -2 -10 -5 -14 -5c-3 0 -5 1 -6 4z" />
    <glyph glyph-name="afii10074" unicode="&#x438;" horiz-adv-x="585" 
d="M50 14v471c0 8 6 9 14 10l144 16c3 0 6 -1 6 -7v-193c0 -29 -2 -67 -4 -96h3c16 42 33 74 52 106l87 153c9 15 12 18 28 20l147 17c6 0 8 -2 8 -12v-493c0 -6 -4 -6 -8 -6h-147c-7 0 -9 1 -9 13v174c0 25 3 72 5 93h-4c-10 -26 -24 -58 -57 -118l-82 -152
c-3 -5 -6 -10 -16 -10h-153c-11 0 -14 1 -14 14z" />
    <glyph glyph-name="afii10075" unicode="&#x439;" horiz-adv-x="585" 
d="M388 718l87 -9c3 0 10 -3 10 -17c0 -15 -3 -37 -19 -62c-18 -29 -62 -79 -164 -79c-163 0 -179 117 -179 141c0 14 8 17 10 17l87 9c3 0 5 1 8 1c21 0 -2 -73 78 -73c67 0 55 73 74 73c3 0 5 -1 8 -1zM50 14v471c0 8 6 9 14 10l144 16c3 0 6 -1 6 -7v-193
c0 -29 -2 -67 -4 -96h3c16 42 33 74 52 106l87 153c9 15 12 18 28 20l147 17c6 0 8 -2 8 -12v-493c0 -6 -4 -6 -8 -6h-147c-7 0 -9 1 -9 13v174c0 25 3 72 5 93h-4c-10 -26 -24 -58 -57 -118l-82 -152c-3 -5 -6 -10 -16 -10h-153c-11 0 -14 1 -14 14z" />
    <glyph glyph-name="afii10076" unicode="&#x43a;" horiz-adv-x="547" 
d="M230 192v-178c0 -14 0 -14 -10 -14h-155c-10 0 -15 0 -15 13v467c0 11 4 12 14 13l146 15c6 1 10 2 13 2c5 0 7 -3 7 -12v-174h36c34 0 47 24 54 55l8 34c22 83 92 106 155 106c11 0 22 -1 25 -12l23 -94c0 -2 1 -3 1 -5c0 -7 -4 -13 -11 -14l-18 -3
c-27 -5 -32 -20 -39 -38l-12 -36c-8 -25 -23 -47 -55 -56v-3c31 -9 53 -35 62 -72l7 -27c12 -49 28 -43 45 -46l12 -2c12 -2 15 -9 15 -17c0 -3 0 -5 -1 -8l-20 -88c-2 -11 -5 -15 -30 -15c-42 0 -141 -5 -166 114l-9 46c-7 32 -20 49 -52 49h-30z" />
    <glyph glyph-name="afii10077" unicode="&#x43b;" horiz-adv-x="578" 
d="M348 362h-85l-1 -40c-2 -98 1 -218 -70 -286c-51 -48 -120 -53 -147 -53c-19 0 -21 9 -24 20l-26 87c0 1 -1 2 -1 4c0 7 4 16 11 17l11 2c15 3 32 6 48 19c54 44 40 191 40 299v49c0 11 1 14 14 14h397c12 0 13 -4 13 -11v-6v-469c0 -8 -1 -8 -15 -8h-156
c-5 0 -9 1 -9 13v349z" />
    <glyph glyph-name="afii10078" unicode="&#x43c;" horiz-adv-x="674" 
d="M425 494h149c13 0 18 -1 19 -15l41 -467c0 -8 -4 -12 -13 -12h-136c-11 0 -19 0 -19 15l-5 274h-5c-7 -32 -21 -88 -29 -115l-28 -97c-3 -11 -6 -13 -20 -13h-85c-14 0 -17 2 -20 13l-30 104c-9 30 -18 58 -28 108h-4l-4 -274c0 -15 -8 -15 -19 -15h-136
c-8 0 -13 2 -13 12l42 467c1 14 6 15 19 15h149c9 0 17 -1 20 -11l40 -135c8 -26 16 -53 25 -103h4c7 38 15 63 24 95l42 143c3 10 11 11 20 11z" />
    <glyph glyph-name="afii10079" unicode="&#x43d;" horiz-adv-x="560" 
d="M330 319v164c0 8 6 9 10 9l165 17c4 0 5 -4 5 -8v-492c0 -6 0 -9 -7 -9h-162c-10 0 -11 4 -11 13v178h-100v-183c0 -7 -2 -8 -7 -8h-161c-10 0 -12 3 -12 13v468c0 8 2 10 10 11l164 17c3 0 6 -1 6 -7v-183h100z" />
    <glyph glyph-name="afii10080" unicode="&#x43e;" horiz-adv-x="556" 
d="M523 246c0 -154 -89 -263 -244 -263c-160 0 -246 105 -246 265c0 156 89 263 247 263s243 -107 243 -265zM345 247c0 111 -25 142 -67 142s-67 -30 -67 -143c0 -111 25 -141 67 -141s67 31 67 142z" />
    <glyph glyph-name="afii10081" unicode="&#x43f;" horiz-adv-x="555" 
d="M50 13v467c0 11 3 14 14 14h428c9 0 13 -4 13 -13v-467c0 -4 1 -7 1 -9c0 -4 -3 -5 -16 -5h-156c-5 0 -9 1 -9 13v339h-95v-338c0 -4 1 -8 1 -10c0 -4 -3 -4 -16 -4h-156c-5 0 -9 1 -9 13z" />
    <glyph glyph-name="afii10082" unicode="&#x440;" horiz-adv-x="559" 
d="M526 248c0 -173 -64 -265 -214 -265c-30 0 -55 10 -77 20v-178c0 -13 -2 -15 -11 -16l-161 -19c-8 0 -8 4 -8 17v542c0 56 -20 100 -20 117c0 4 3 6 8 7l116 35c7 2 14 3 21 3c11 0 19 -21 27 -43c38 32 72 43 116 43c139 0 203 -106 203 -263zM352 245
c0 106 -25 140 -57 140c-17 0 -37 -6 -60 -24v-256c16 -7 35 -10 52 -10c43 0 65 27 65 150z" />
    <glyph glyph-name="afii10083" unicode="&#x441;" horiz-adv-x="470" 
d="M452 432l-38 -88c-3 -6 -5 -9 -9 -9c-3 0 -7 2 -12 5c-35 22 -67 37 -102 37c-39 0 -80 -32 -80 -133c0 -97 40 -127 81 -127c33 0 60 15 86 30c7 4 12 6 16 6c5 0 9 -4 13 -12l38 -74c2 -4 4 -8 4 -12c0 -44 -133 -72 -176 -72c-159 0 -240 101 -240 256
c0 163 91 272 256 272c57 0 112 -18 157 -51c7 -5 10 -9 10 -14c0 -4 -2 -8 -4 -14z" />
    <glyph glyph-name="afii10084" unicode="&#x442;" horiz-adv-x="448" 
d="M313 362v-348c0 -11 -1 -14 -14 -14h-152c-11 0 -14 1 -14 14v348h-109c-11 0 -14 3 -14 14v104c0 11 3 14 14 14h408c10 0 16 -1 16 -10l-15 -108c0 -3 -3 -14 -15 -14h-105z" />
    <glyph glyph-name="afii10085" unicode="&#x443;" horiz-adv-x="545" 
d="M537 467l-125 -427c-35 -121 -56 -261 -227 -261c-30 0 -168 28 -168 65c0 3 1 7 3 11l48 95c2 5 6 7 10 7c3 0 55 -34 91 -34c28 0 46 5 55 35l12 42h-34c-13 0 -14 0 -19 13l-169 452c-2 5 -3 9 -3 12c0 5 4 8 16 9l166 15c8 0 11 -2 13 -13l61 -247
c9 -37 13 -89 17 -122c5 36 11 92 18 122l55 247c2 11 4 13 11 13l155 -15c13 -1 17 -4 17 -9c0 -3 -2 -6 -3 -10z" />
    <glyph glyph-name="afii10086" unicode="&#x444;" horiz-adv-x="766" 
d="M293 -192v197c-19 -12 -44 -22 -82 -22c-175 0 -178 180 -178 268c0 85 12 260 164 260c25 0 61 -6 96 -32v202c0 7 0 12 9 13l163 17c7 0 8 -4 8 -10v-222c21 15 52 32 97 32c145 0 163 -171 163 -260c0 -88 -4 -268 -177 -268c-38 0 -64 10 -83 22v-198
c0 -8 0 -12 -9 -12h-159c-10 0 -12 3 -12 13zM298 109v255c-11 12 -29 21 -43 21c-55 0 -52 -109 -52 -146c0 -70 6 -94 8 -100c6 -22 18 -42 47 -42c13 0 32 8 40 12zM468 364v-255c4 -2 20 -12 39 -12c40 0 56 18 56 143s-20 145 -52 145c-15 0 -32 -10 -43 -21z" />
    <glyph glyph-name="afii10087" unicode="&#x445;" horiz-adv-x="562" 
d="M549 26c3 -5 5 -9 5 -13c0 -6 -4 -10 -13 -11l-161 -17c-4 0 -7 -1 -10 -1c-6 0 -9 2 -12 9l-57 103c-10 18 -14 32 -19 43c-5 -11 -9 -27 -18 -43l-60 -103c-4 -6 -6 -8 -11 -8c-3 0 -5 0 -10 1l-158 29c-9 2 -14 6 -14 11c0 4 2 8 6 13l155 210l-140 198
c-4 6 -6 10 -6 14c0 5 4 8 14 10l158 28c4 1 8 1 10 1c6 0 8 -3 12 -9l45 -87c5 -11 12 -30 16 -39c5 11 11 27 19 39l53 87c4 7 6 9 11 9c3 0 7 -1 12 -2l156 -32c10 -2 14 -6 14 -11c0 -4 -2 -8 -6 -13l-147 -193z" />
    <glyph glyph-name="afii10088" unicode="&#x446;" horiz-adv-x="567" 
d="M320 132v351c0 5 3 8 8 9l166 17c3 0 6 -1 6 -7v-370h57c8 0 10 -4 10 -12v-246c0 -11 -1 -14 -14 -14h-122c-11 0 -14 3 -14 14v126h-353c-11 0 -14 3 -14 14v469c0 7 5 9 9 9l165 17c3 0 6 -1 6 -7v-370h90z" />
    <glyph glyph-name="afii10089" unicode="&#x447;" horiz-adv-x="539" 
d="M309 282v196v4c0 5 1 9 14 11l146 15c6 1 11 1 14 1c6 0 6 -6 6 -11v-484c0 -4 1 -7 1 -9c0 -4 -3 -5 -16 -5h-156c-5 0 -9 1 -9 13v155c-43 -17 -85 -21 -116 -21c-32 0 -81 5 -115 39c-33 33 -38 76 -38 113v183c0 6 1 10 14 11l146 15c6 1 11 1 14 1c5 0 6 -3 6 -8
v-181c0 -22 6 -49 46 -49c9 0 27 1 43 11z" />
    <glyph glyph-name="afii10090" unicode="&#x448;" horiz-adv-x="798" 
d="M572 132v351c0 8 7 9 14 10l156 16c3 0 6 -1 6 -7v-488c0 -11 -1 -14 -14 -14h-670c-11 0 -14 3 -14 14v467c0 4 1 10 8 11l162 17c3 0 6 -1 6 -7v-370h85v349c0 4 1 10 8 11l161 17c5 0 7 -2 7 -9v-368h85z" />
    <glyph glyph-name="afii10091" unicode="&#x449;" horiz-adv-x="817" 
d="M667 0h-603c-11 0 -14 3 -14 14v467c0 4 1 10 8 11l162 17c3 0 6 -1 6 -7v-370h85v349c0 4 1 10 8 11l161 17c5 0 7 -2 7 -9v-368h85v351c0 8 7 9 14 10l155 16c7 0 7 -4 7 -11v-366h57c10 0 12 -2 12 -14v-244c0 -11 -1 -14 -14 -14h-122c-11 0 -14 3 -14 14v126z" />
    <glyph glyph-name="afii10092" unicode="&#x44a;" horiz-adv-x="622" 
d="M411 0h-243c-11 0 -14 1 -14 14v348h-136c-9 0 -13 3 -13 10l17 108c1 7 3 14 15 14h274c16 0 19 0 19 -14v-152h75c35 0 108 -2 154 -46c37 -35 43 -83 43 -118c0 -32 -5 -81 -40 -116c-46 -47 -123 -48 -151 -48zM330 221v-114h46c26 0 66 8 66 55c0 46 -41 59 -67 59
h-45z" />
    <glyph glyph-name="afii10093" unicode="&#x44b;" horiz-adv-x="761" 
d="M711 502v-488c0 -11 -1 -14 -14 -14h-152c-11 0 -14 3 -14 14v469c0 7 2 8 8 9l166 17c3 0 6 -1 6 -7zM58 492l158 17h3c7 0 7 -4 7 -11v-170h60c51 0 111 -5 157 -49c39 -36 44 -77 44 -115c0 -33 -4 -81 -41 -118c-43 -43 -106 -46 -150 -46h-234c-8 0 -12 2 -12 12
v471c0 5 3 8 8 9zM226 221v-114h47c61 0 60 39 60 55c0 22 -3 59 -69 59h-38z" />
    <glyph glyph-name="afii10094" unicode="&#x44c;" horiz-adv-x="518" 
d="M58 492l158 17h3c7 0 7 -4 7 -11v-170h75c35 0 108 -2 154 -46c37 -35 43 -83 43 -118c0 -32 -5 -81 -40 -116c-46 -47 -123 -48 -151 -48h-243c-11 0 -14 1 -14 14v469c0 5 3 8 8 9zM226 221v-114h46c26 0 66 8 66 55c0 46 -41 59 -67 59h-45z" />
    <glyph glyph-name="afii10095" unicode="&#x44d;" horiz-adv-x="476" 
d="M75 356l-37 71c-1 2 -1 5 -1 7c0 32 98 77 172 77c213 0 234 -173 234 -265c0 -51 -5 -138 -66 -200c-53 -55 -122 -63 -170 -63c-79 0 -174 36 -174 69c0 3 1 7 3 11l36 71c3 5 6 7 10 7s8 -2 11 -4c25 -15 52 -36 91 -36c41 0 81 27 81 94h-120c-11 0 -14 3 -14 14v81
c0 11 3 14 14 14h117c0 47 -28 90 -78 90c-41 0 -63 -21 -83 -34l-9 -6c-3 -2 -6 -3 -9 -3c-4 0 -6 2 -8 5z" />
    <glyph glyph-name="afii10096" unicode="&#x44e;" horiz-adv-x="797" 
d="M226 320h61c4 36 18 87 59 128c53 53 118 63 170 63c85 0 248 -28 248 -264c0 -237 -167 -264 -244 -264c-48 0 -118 8 -174 65c-52 53 -60 116 -60 150h-60v-184c0 -11 -1 -14 -14 -14h-148c-11 0 -14 3 -14 14v467c0 4 1 10 8 11l162 17c3 0 6 -1 6 -7v-182zM519 389
c-70 0 -67 -111 -67 -142s-3 -142 67 -142s67 111 67 142s3 142 -67 142z" />
    <glyph glyph-name="afii10097" unicode="&#x44f;" horiz-adv-x="551" 
d="M501 480v-473c0 -7 -4 -7 -8 -7h-156c-10 0 -12 3 -12 13v163h-31c-31 0 -53 -20 -60 -54l-9 -37c-23 -92 -99 -102 -162 -102c-8 0 -22 0 -25 11l-28 95c-1 2 -1 4 -1 6c0 9 6 15 15 17l12 2c20 4 35 16 41 38l6 19c7 21 21 46 57 57v2c-78 23 -90 82 -90 118
c0 27 4 68 37 101c45 45 113 45 157 45h243c11 0 14 -1 14 -14zM325 283v104h-43c-32 0 -64 -11 -64 -49c0 -54 42 -55 61 -55h46z" />
    <glyph glyph-name="dotlessi" unicode="&#x131;" horiz-adv-x="322" 
d="M268 13c0 -12 0 -13 -10 -13h-157c-12 0 -15 0 -15 13v339h-54c-12 0 -14 2 -14 13v114c0 13 2 15 14 15h222c13 0 14 -2 14 -15v-466z" />
    <glyph glyph-name="dotaccent" unicode="&#x2d9;" horiz-adv-x="526" 
d="M371 638c0 -59 -49 -108 -108 -108c-60 0 -108 48 -108 108s48 108 108 108s108 -48 108 -108z" />
    <glyph glyph-name="acute" unicode="&#xb4;" horiz-adv-x="426" 
d="M367 669c3 -6 5 -10 5 -14c0 -6 -5 -10 -16 -14l-234 -89c-5 -2 -9 -3 -12 -3c-6 0 -10 4 -15 14l-33 65c-3 6 -5 10 -5 13c0 5 4 9 14 15l213 130c7 4 11 7 15 7c5 0 8 -5 13 -15z" />
    <glyph glyph-name="Acute" horiz-adv-x="426" 
d="M367 854c3 -6 5 -10 5 -14c0 -6 -5 -10 -16 -14l-234 -89c-5 -2 -9 -3 -12 -3c-6 0 -10 4 -15 14l-33 65c-3 6 -5 10 -5 13c0 5 4 9 14 15l213 130c7 4 11 7 15 7c5 0 8 -5 13 -15z" />
    <glyph glyph-name="dieresis" unicode="&#xa8;" horiz-adv-x="528" 
d="M484 637c0 -55 -45 -100 -100 -100s-99 45 -99 100c0 56 44 101 99 101s100 -45 100 -101zM243 637c0 -55 -44 -100 -99 -100s-100 45 -100 100c0 56 45 101 100 101s99 -45 99 -101z" />
    <glyph glyph-name="Dieresis" horiz-adv-x="528" 
d="M484 822c0 -55 -45 -100 -100 -100s-99 45 -99 100c0 56 44 101 99 101s100 -45 100 -101zM243 822c0 -55 -44 -100 -99 -100s-100 45 -100 100c0 56 45 101 100 101s99 -45 99 -101z" />
    <glyph glyph-name="cyrbreve" horiz-adv-x="552" 
d="M359 718l87 -9c3 0 10 -3 10 -17c0 -15 -3 -37 -19 -62c-18 -29 -62 -79 -164 -79c-163 0 -179 117 -179 141c0 14 8 17 10 17l87 9c3 0 5 1 8 1c21 0 -2 -73 78 -73c67 0 55 73 74 73c3 0 5 -1 8 -1z" />
    <glyph glyph-name="cyrBreve" horiz-adv-x="568" 
d="M364 904l99 -15c11 -2 11 -10 11 -14v-3c0 -111 -135 -138 -190 -138c-67 0 -190 34 -190 139v2c0 5 1 12 11 14l95 15c3 0 6 1 8 1c4 0 7 -2 10 -9l4 -12c11 -29 29 -49 63 -49c29 0 51 16 61 50l3 10c2 6 5 9 12 9h3z" />
  </font>
</defs>
</svg>
